<?xml version="1.0" encoding="UTF-8" standalone="no"?>
<!-- Generator: Adobe Illustrator 25.0.1, SVG Export Plug-In . SVG Version: 6.00 Build 0)  -->

<svg
   version="1.0"
   id="katman_1"
   x="0px"
   y="0px"
   viewBox="0 0 470 150"
   xml:space="preserve"
   sodipodi:docname="Advcash.svg"
   width="470"
   height="150"
   inkscape:version="1.3 (0e150ed6c4, 2023-07-21)"
   xmlns:inkscape="http://www.inkscape.org/namespaces/inkscape"
   xmlns:sodipodi="http://sodipodi.sourceforge.net/DTD/sodipodi-0.dtd"
   xmlns="http://www.w3.org/2000/svg"
   xmlns:svg="http://www.w3.org/2000/svg"><defs
   id="defs5" /><sodipodi:namedview
   id="namedview5"
   pagecolor="#ffffff"
   bordercolor="#000000"
   borderopacity="0.25"
   inkscape:showpageshadow="2"
   inkscape:pageopacity="0.0"
   inkscape:pagecheckerboard="0"
   inkscape:deskcolor="#d1d1d1"
   inkscape:zoom="1.3099153"
   inkscape:cx="172.91194"
   inkscape:cy="227.87733"
   inkscape:window-width="1680"
   inkscape:window-height="979"
   inkscape:window-x="-8"
   inkscape:window-y="-8"
   inkscape:window-maximized="1"
   inkscape:current-layer="g5" />&#10;<style
   type="text/css"
   id="style1">&#10;	.st0{fill:#00364D;}&#10;	.st1{fill:#009A61;}&#10;	.st2{fill:#FFFFFF;}&#10;</style>&#10;<g
   id="g5"
   transform="translate(87.791935,-123.67212)">&#10;	<path
   class="st1"
   d="m 74.844541,136.16447 c 33.399999,0 60.599999,-27.1 60.599999,-60.599999 0,-33.5 -27.1,-60.6 -60.599999,-60.6 -33.499997,0 -60.599997,27.1 -60.599997,60.6 0,33.499999 27.1,60.599999 60.599997,60.599999 z"
   id="path10"
   sodipodi:nodetypes="sssss"
   transform="translate(-87.791935,123.67212)" /><path
   class="st0"
   d="m 90.6,221.2 c -3.5,3.1 -8,4.9 -12.6,4.9 -7.8,0.6 -14.6,-5.3 -15.1,-13.1 0,-0.4 0,-0.9 0,-1.3 -0.3,-5.3 2.8,-10.2 7.8,-12.1 3.7,-1.6 7.6,-2.5 11.7,-2.8 l 7.8,-0.6 v -1.7 c 0,-5 -3.3,-7.2 -8.9,-7.2 -4.1,0.2 -8.1,1.3 -11.7,3.3 l -3.9,-7.2 c 5.3,-2.9 11.2,-4.4 17.2,-4.5 12.1,0 17.8,5.5 17.8,16.1 v 18.4 c -0.3,3.9 0.1,7.9 1.1,11.7 h -9.5 z m -7.3,-16.7 c -2.3,-0.1 -4.7,0.5 -6.7,1.7 -1.7,1.1 -2.8,3 -2.8,5 0,3.3 2.7,6.1 6,6.1 0.2,0 0.4,0 0.6,0 3.3,-0.1 6.4,-1.3 8.9,-3.3 v -9.5 z m 23.9,-1.2 c 0,-14.4 10.6,-23.9 24.4,-23.9 2,-0.1 4.1,0.1 6.1,0.5 v -21.6 h 11.1 v 65 c -5.3,2.3 -10.9,3.4 -16.7,3.3 -13.8,-0.5 -24.9,-8.2 -24.9,-23.3 z m 30.6,12.8 v -26.7 c -1.8,-0.5 -3.7,-0.7 -5.5,-0.5 -7.5,-0.2 -13.7,5.7 -13.9,13.2 0,0.4 0,0.8 0,1.3 -0.6,7.1 4.6,13.3 11.7,13.9 0.7,0.1 1.5,0.1 2.2,0 1.6,-0.6 3.8,-0.6 5.5,-1.2 z m 15,-35.5 h 11.7 l 11.1,30.6 11.1,-30.5 h 11.1 l -18.3,45 h -8.3 z"
   id="path1" />&#10;	<path
   class="st1"
   d="m 199.4,203.3 c -0.3,-12.9 9.9,-23.6 22.8,-23.9 h 0.9 c 4.2,0.1 8.3,1 12.1,2.8 v 9.4 c -3.3,-2.3 -7.1,-3.4 -11.1,-3.3 -8.3,0 -13.3,6.1 -13.3,14.4 0,9.4 5,14.4 12.8,14.4 3.7,0 7.3,-0.9 10.6,-2.8 l 3.3,7.8 c -4.7,2.9 -10.1,4.4 -15.6,4.4 -12.3,0.2 -22.4,-9.7 -22.6,-22 0.1,-0.3 0.1,-0.7 0.1,-1.2 z m 67.8,17.9 c -3.5,3.2 -8,5 -12.8,5 -7.8,0.6 -14.6,-5.3 -15.1,-13.1 v -1.3 c -0.3,-5.3 2.8,-10.2 7.8,-12.1 3.7,-1.6 7.6,-2.5 11.7,-2.8 l 7.8,-0.5 v -1.7 c 0,-5 -3.3,-7.2 -8.9,-7.2 -4.1,0.2 -8.1,1.3 -11.7,3.3 l -3.7,-7.4 c 5.3,-2.9 11.3,-4.4 17.3,-4.5 12.1,0 17.8,5.5 17.8,16.1 v 18.4 c -0.3,3.9 0.1,7.9 1.1,11.7 h -9.6 z M 260,204.5 c -2.3,-0.1 -4.7,0.5 -6.7,1.7 -1.7,1 -2.8,2.9 -2.8,4.9 0,3.3 2.7,6.1 6,6.1 h 0.6 c 3.3,-0.1 6.4,-1.3 8.9,-3.3 v -9.4 c 0.1,-0.1 -6,0 -6,0 z m 26.1,8.8 c 3.6,2.4 7.8,3.8 12.1,3.9 4.4,0 7.8,-1.1 7.8,-5 0,-7.8 -21.2,-5 -21.2,-19.4 0,-7.8 6.7,-13.3 17.2,-13.3 4.5,0.1 9,0.8 13.3,2.2 v 9.4 c -4,-1.8 -8.4,-2.7 -12.8,-2.8 -3.9,0 -6.1,1.1 -6.1,3.9 0,7.2 21.2,4.4 21.2,20 0,10 -8.3,13.9 -18.3,13.9 -5.8,0 -11.6,-1.5 -16.7,-4.5 0.1,0 3.5,-8.3 3.5,-8.3 z m 37.8,-55 H 335 v 27.3 c 4.2,-3.7 9.5,-5.8 15.1,-6.1 7.2,0 14.4,3.3 14.4,16.1 V 225 h -11.1 v -26.2 c 0,-5.5 -1.1,-10 -6.7,-10 -4.2,0.3 -8.2,2.1 -11.2,5.1 V 225 h -11.1 v -66.6 z"
   id="path2"
   sodipodi:nodetypes="ccccccssccccccccccccsccccsccccccssccccccssccccsssccccccsccscccccc" />&#10;	<path
   class="st2"
   d="m -45.247389,231.43659 31.1,-68.3 2.2,23.9 -20.6,43.9 z"
   id="path3" />&#10;	<path
   class="st0"
   d="m -42.947389,202.53659 h 58.9 l -6.6999999,8.3 H -37.447389 c 0,0.1 -5.5,-8.3 -5.5,-8.3 z m -10,-15 h 77.8 l -6.7,8.3 h -65.5 c -0.1,0.1 -5.6,-8.3 -5.6,-8.3 z"
   id="path4" />&#10;	<path
   class="st2"
   d="m 16.952611,231.43659 -31.1,-68.3 -2.2,23.9 20.5000001,43.9 z"
   id="path5" />&#10;</g>&#10;</svg>
