<?xml version="1.0" encoding="UTF-8"?>
<svg xmlns:xodm="http://www.corel.com/coreldraw/odm/2003" xmlns="http://www.w3.org/2000/svg" xmlns:xlink="http://www.w3.org/1999/xlink" version="1.1" id="Layer_1" x="0px" y="0px" viewBox="0 0 2500 566" style="enable-background:new 0 0 2500 566;" xml:space="preserve">
<style type="text/css">
	.st0{fill:#988430;}
	.st1{fill:#7A6A2A;}
	.st2{fill:#BA9F33;}
	.st3{fill-rule:evenodd;clip-rule:evenodd;fill:#CFB66C;}
	.st4{fill-rule:evenodd;clip-rule:evenodd;fill:#E2CC85;}
	.st5{fill-rule:evenodd;clip-rule:evenodd;fill:#F1D789;}
	.st6{fill-rule:evenodd;clip-rule:evenodd;fill:#F4ECB4;}
	.st7{fill-rule:evenodd;clip-rule:evenodd;fill:#F3E19D;}
	.st8{fill-rule:evenodd;clip-rule:evenodd;fill:#F2E8B0;}
	.st9{fill-rule:evenodd;clip-rule:evenodd;fill:#F5EEC0;}
	.st10{fill-rule:evenodd;clip-rule:evenodd;fill:#E6DB9D;}
	.st11{fill-rule:evenodd;clip-rule:evenodd;fill:#E5CB7A;}
	.st12{fill-rule:evenodd;clip-rule:evenodd;fill:#D8C173;}
	.st13{fill-rule:evenodd;clip-rule:evenodd;fill:#E0CD81;}
	.st14{fill-rule:evenodd;clip-rule:evenodd;fill:#DFC57C;}
	.st15{fill-rule:evenodd;clip-rule:evenodd;fill:#E5CC7C;}
	.st16{fill-rule:evenodd;clip-rule:evenodd;fill:#D2C281;}
	.st17{fill-rule:evenodd;clip-rule:evenodd;fill:#E2C270;}
	.st18{fill-rule:evenodd;clip-rule:evenodd;fill:#CCB360;}
	.st19{fill-rule:evenodd;clip-rule:evenodd;fill:#D5B457;}
	.st20{fill-rule:evenodd;clip-rule:evenodd;fill:#D2B257;}
	.st21{fill-rule:evenodd;clip-rule:evenodd;fill:#D2B159;}
	.st22{fill-rule:evenodd;clip-rule:evenodd;fill:#C2A44D;}
	.st23{fill-rule:evenodd;clip-rule:evenodd;fill:#CAA13E;}
	.st24{fill-rule:evenodd;clip-rule:evenodd;fill:#B59544;}
	.st25{fill-rule:evenodd;clip-rule:evenodd;fill:#C89D3A;}
	.st26{fill-rule:evenodd;clip-rule:evenodd;fill:#CEB052;}
	.st27{fill-rule:evenodd;clip-rule:evenodd;fill:#CCA847;}
	.st28{fill-rule:evenodd;clip-rule:evenodd;fill:#C39D3C;}
	.st29{fill-rule:evenodd;clip-rule:evenodd;fill:#D2BA6B;}
	.st30{fill-rule:evenodd;clip-rule:evenodd;fill:#C0993A;}
	.st31{fill-rule:evenodd;clip-rule:evenodd;fill:#A88F33;}
	.st32{fill-rule:evenodd;clip-rule:evenodd;fill:#E3C571;}
	.st33{fill-rule:evenodd;clip-rule:evenodd;fill:#D8B65B;}
	.st34{fill-rule:evenodd;clip-rule:evenodd;fill:#D3AE4D;}
	.st35{fill-rule:evenodd;clip-rule:evenodd;fill:#F4EFC8;}
	.st36{fill-rule:evenodd;clip-rule:evenodd;fill:#EBCC73;}
	.st37{fill-rule:evenodd;clip-rule:evenodd;fill:#E5C66B;}
	.st38{fill-rule:evenodd;clip-rule:evenodd;fill:#E6BD62;}
	.st39{fill-rule:evenodd;clip-rule:evenodd;fill:#B6933F;}
	.st40{fill-rule:evenodd;clip-rule:evenodd;fill:#C49937;}
	.st41{fill-rule:evenodd;clip-rule:evenodd;fill:#DFC068;}
	.st42{fill-rule:evenodd;clip-rule:evenodd;fill:#C99E3D;}
	.st43{fill-rule:evenodd;clip-rule:evenodd;fill:#B58634;}
	.st44{fill-rule:evenodd;clip-rule:evenodd;fill:#E6C367;}
	.st45{fill-rule:evenodd;clip-rule:evenodd;fill:#DCBA5A;}
	.st46{fill-rule:evenodd;clip-rule:evenodd;fill:#E9CE77;}
	.st47{fill-rule:evenodd;clip-rule:evenodd;fill:#CDAE50;}
	.st48{fill-rule:evenodd;clip-rule:evenodd;fill:#D2A83E;}
	.st49{fill-rule:evenodd;clip-rule:evenodd;fill:#C29637;}
	.st50{fill-rule:evenodd;clip-rule:evenodd;fill:#AC8132;}
	.st51{fill-rule:evenodd;clip-rule:evenodd;fill:#A67A2E;}
	.st52{fill-rule:evenodd;clip-rule:evenodd;fill:#8C6228;}
	.st53{fill-rule:evenodd;clip-rule:evenodd;fill:#CBA94C;}
	.st54{fill-rule:evenodd;clip-rule:evenodd;fill:#BE9C44;}
	.st55{fill-rule:evenodd;clip-rule:evenodd;fill:#A17C34;}
	.st56{fill-rule:evenodd;clip-rule:evenodd;fill:#92723A;}
	.st57{fill-rule:evenodd;clip-rule:evenodd;fill:#B18E3E;}
	.st58{fill-rule:evenodd;clip-rule:evenodd;fill:#543E26;}
	.st59{fill-rule:evenodd;clip-rule:evenodd;fill:#806031;}
	.st60{fill-rule:evenodd;clip-rule:evenodd;fill:#B6903C;}
	.st61{fill-rule:evenodd;clip-rule:evenodd;fill:#685026;}
	.st62{fill-rule:evenodd;clip-rule:evenodd;fill:#D4B968;}
	.st63{fill-rule:evenodd;clip-rule:evenodd;fill:#CCA849;}
	.st64{fill-rule:evenodd;clip-rule:evenodd;fill:#585136;}
	.st65{fill-rule:evenodd;clip-rule:evenodd;fill:#252211;}
	.st66{fill-rule:evenodd;clip-rule:evenodd;fill:#C3B378;}
	.st67{fill-rule:evenodd;clip-rule:evenodd;fill:#E6D89C;}
	.st68{fill-rule:evenodd;clip-rule:evenodd;fill:#6F674D;}
	.st69{fill-rule:evenodd;clip-rule:evenodd;fill:#AC924C;}
	.st70{fill-rule:evenodd;clip-rule:evenodd;fill:#9F8E57;}
	.st71{fill-rule:evenodd;clip-rule:evenodd;fill:#EAC970;}
	.st72{fill-rule:evenodd;clip-rule:evenodd;fill:#D7BC6B;}
	.st73{fill-rule:evenodd;clip-rule:evenodd;fill:#453A25;}
	.st74{fill-rule:evenodd;clip-rule:evenodd;fill:#84754B;}
	.st75{fill-rule:evenodd;clip-rule:evenodd;fill:#F7F7E7;}
	.st76{fill-rule:evenodd;clip-rule:evenodd;fill:#F8F6DE;}
	.st77{fill-rule:evenodd;clip-rule:evenodd;fill:#D4C38B;}
	.st78{fill-rule:evenodd;clip-rule:evenodd;fill:#E2D59D;}
	.st79{fill-rule:evenodd;clip-rule:evenodd;fill:#CBAC5A;}
	.st80{fill-rule:evenodd;clip-rule:evenodd;fill:#D6BC6F;}
	.st81{fill-rule:evenodd;clip-rule:evenodd;fill:#DFC677;}
	.st82{fill-rule:evenodd;clip-rule:evenodd;fill:#C4A859;}
	.st83{fill-rule:evenodd;clip-rule:evenodd;fill:#927D49;}
	.st84{fill-rule:evenodd;clip-rule:evenodd;fill:#6E6342;}
	.st85{fill-rule:evenodd;clip-rule:evenodd;fill:#39331F;}
	.st86{fill-rule:evenodd;clip-rule:evenodd;fill:#292311;}
	.st87{fill-rule:evenodd;clip-rule:evenodd;fill:#3F3824;}
	.st88{fill-rule:evenodd;clip-rule:evenodd;fill:#2D2815;}
	.st89{fill-rule:evenodd;clip-rule:evenodd;fill:#82764F;}
	.st90{fill-rule:evenodd;clip-rule:evenodd;fill:#2D2816;}
	.st91{fill-rule:evenodd;clip-rule:evenodd;fill:#574F35;}
	.st92{fill:none;}
	.st93{fill-rule:evenodd;clip-rule:evenodd;fill:#DEC270;}
	.st94{fill-rule:evenodd;clip-rule:evenodd;fill:#CBAF59;}
	.st95{fill-rule:evenodd;clip-rule:evenodd;fill:#E3C677;}
	.st96{fill-rule:evenodd;clip-rule:evenodd;fill:#ECD592;}
	.st97{fill-rule:evenodd;clip-rule:evenodd;fill:#FFFFFF;fill-opacity:0.8;}
</style>
<g id="Layer_x0020_1">
	<g id="_2077802818496">
		<path d="M748.7,401.9c-9.1,0-18.2-1-27.3-2c-9.1-2-15.2-3-19.2-4c-4-1-8.1-4-10.1-7.1c-3-4-4-7.1-4-11.1V158.1    c0-5.1,2-10.1,6.1-13.2c4-4,8.1-5.1,14.2-5.1c26.3,0,52.6,4,78.9,11.1c26.3,8.1,49.6,22.3,68.8,43.5c19.2,21.2,29.3,50.6,29.3,88    c0,27.3-6.1,49.6-18.2,67.8c-12.1,18.2-28.3,31.4-48.6,40.5c-20.2,9.1-43.5,13.2-68.8,13.2l0,0L748.7,401.9z M748.7,363.4    c30.4,0,53.6-7.1,70.8-21.2s26.3-34.4,26.3-61.7c0-33.4-11.1-58.7-32.4-74.9c-22.3-16.2-50.6-26.3-87-28.3v183.1    c9.1,1,16.2,2,22.3,2V363.4z M1015.8,399.9c-19.2,0-36.4-5.1-51.6-16.2c-15.2-11.1-27.3-25.3-35.4-43.5    c-9.1-18.2-13.2-39.5-13.2-62.7c0-26.3,5.1-49.6,16.2-71.8c10.1-21.2,24.3-38.4,42.5-51.6c17.2-12.1,36.4-19.2,56.7-19.2    c19.2,0,36.4,5.1,51.6,16.2c15.2,10.1,27.3,25.3,36.4,43.5c9.1,18.2,13.2,39.5,13.2,62.7c0,26.3-5.1,50.6-16.2,71.8    c-10.1,21.2-24.3,38.4-42.5,51.6C1056.3,392.8,1037,399.9,1015.8,399.9L1015.8,399.9z M1015.8,363.4c14.2,0,27.3-4,38.4-13.2    c12.1-9.1,21.2-21.2,28.3-36.4c7.1-16.2,10.1-33.4,10.1-53.6c0-18.2-3-33.4-9.1-46.5s-14.2-23.3-24.3-30.4    c-10.1-7.1-20.2-10.1-31.4-10.1c-13.2,0-26.3,4-37.4,13.2s-20.2,21.2-27.3,37.4s-10.1,34.4-10.1,53.6c0,18.2,3,33.4,8.1,46.5    c6.1,13.2,13.2,22.3,22.3,29.3c9.1,7.1,19.2,10.1,30.4,10.1l0,0H1015.8z M1279.8,400.9c-23.3,0-43.5-6.1-61.7-18.2    c-18.2-12.1-31.4-28.3-41.5-47.6c-10.1-19.2-14.2-40.5-14.2-62.7s5.1-43.5,15.2-64.8s25.3-38.4,43.5-51.6    c18.2-13.2,40.5-20.2,64.8-20.2c22.3,0,41.5,5.1,57.7,14.2c15.2,10.1,27.3,20.2,35.4,33.4c8.1,12.1,11.1,22.3,11.1,29.3    c0,5.1-2,10.1-5.1,13.2c-3,3-8.1,5.1-13.2,5.1c-9.1,0-15.2-4-18.2-12.1c-5.1-12.1-12.1-23.3-23.3-31.4    c-11.1-8.1-25.3-12.1-43.5-12.1c-19.2,0-35.4,6.1-47.6,17.2c-13.2,11.1-22.3,24.3-28.3,39.5s-9.1,28.3-9.1,40.5    c0,14.2,3,28.3,9.1,41.5c6.1,14.2,15.2,25.3,27.3,34.4c12.1,9.1,26.3,14.2,43.5,14.2c16.2,0,31.4-4,43.5-12.1    c12.1-8.1,21.2-20.2,27.3-35.4h-6.1c-9.1,0-18.2,2-29.3,5.1c-4,1-8.1,2-10.1,2c-5.1,0-9.1-2-13.2-5.1c-4-3-6.1-8.1-6.1-14.2    c0-9.1,5.1-15.2,14.2-19.2c4-2,11.1-3,21.2-5.1c10.1-1,20.2-2,30.4-2c15.2,0,29.3,2,43.5,7.1c8.1,3,12.1,9.1,12.1,18.2    c0,4-1,8.1-4,11.1c-3,3-6.1,5.1-10.1,7.1c-2,0-4,1-5.1,1c-7.1,24.3-20.2,43.5-39.5,58.7c-19.2,15.2-42.5,22.3-69.8,22.3l0,0    L1279.8,400.9z M1468,397.8c-5.1,0-10.1-2-14.2-6.1c-4-4-6.1-8.1-6.1-14.2V157c0-5.1,2-10.1,6.1-14.2c4-4,8.1-6.1,14.2-6.1h154.8    c5.1,0,10.1,2,13.2,6.1c4,4,5.1,8.1,5.1,14.2c0,5.1-2,10.1-5.1,14.2c-4,4-8.1,6.1-13.2,6.1h-135.6V244h117.4    c5.1,0,10.1,2,13.2,5.1c4,4,5.1,8.1,5.1,13.2s-2,10.1-5.1,14.2c-4,4-8.1,6.1-13.2,6.1h-117.4v76.9h134.6c5.1,0,10.1,2,13.2,6.1    c4,4,5.1,8.1,5.1,14.2c0,5.1-2,10.1-5.1,14.2c-4,4-8.1,6.1-13.2,6.1H1468l0,0V397.8z M1777.6,399.9c-20.2,0-39.5-5.1-56.7-14.2    c-17.2-9.1-31.4-23.3-41.5-40.5c-10.1-18.2-15.2-38.4-15.2-61.7c0-25.3,6.1-48.6,17.2-71.8c12.1-23.3,27.3-41.5,45.5-54.6    c18.2-14.2,37.4-20.2,57.7-20.2c8.1,0,16.2,1,24.3,4c8.1,3,15.2,6.1,22.3,10.1c3-3,7.1-5.1,11.1-5.1c5.1,0,9.1,2,13.2,5.1    c3,3,5.1,8.1,5.1,12.1v25.3c0,5.1-2,10.1-6.1,13.2c-4,4-8.1,6.1-14.2,6.1c-5.1,0-9.1-1-13.2-5.1c-3-3-5.1-7.1-5.1-11.1v-3    c-9.1-10.1-23.3-15.2-41.5-15.2c-13.2,0-25.3,5.1-38.4,16.2c-12.1,10.1-22.3,24.3-30.4,41.5s-11.1,34.4-11.1,52.6    c0,16.2,3,30.4,10.1,42.5s16.2,21.2,27.3,27.3c11.1,6.1,23.3,9.1,37.4,9.1c25.3,0,45.5-11.1,61.7-32.4c2-3,5.1-5.1,7.1-6.1    s5.1-2,8.1-2c5.1,0,10.1,2,14.2,5.1c4,3,6.1,8.1,6.1,14.2c0,4-1,8.1-3,11.1c-10.1,15.2-24.3,26.3-40.5,34.4    c-16.2,8.1-34.4,11.1-52.6,11.1L1777.6,399.9z M1997.2,399.9c-19.2,0-36.4-5.1-51.6-16.2c-15.2-11.1-27.3-25.3-35.4-43.5    c-9.1-18.2-13.2-39.5-13.2-62.7c0-26.3,5.1-49.6,16.2-71.8c10.1-21.2,24.3-38.4,42.5-51.6c18.2-12.1,36.4-19.2,56.7-19.2    c19.2,0,36.4,5.1,51.6,16.2c15.2,10.1,27.3,25.3,36.4,43.5s13.2,39.5,13.2,62.7c0,26.3-5.1,50.6-16.2,71.8    c-10.1,21.2-24.3,38.4-42.5,51.6C2037.6,392.8,2018.4,399.9,1997.2,399.9L1997.2,399.9z M1997.2,363.4c14.2,0,26.3-4,38.4-13.2    s21.2-21.2,28.3-36.4c7.1-16.2,10.1-33.4,10.1-53.6c0-18.2-3-33.4-9.1-46.5c-6.1-13.2-14.2-23.3-24.3-30.4s-20.2-10.1-31.4-10.1    c-13.2,0-26.3,4-37.4,13.2c-11.1,9.1-20.2,21.2-27.3,37.4s-10.1,34.4-10.1,53.6c0,18.2,3,33.4,8.1,46.5    c6.1,13.2,13.2,22.3,22.3,29.3s19.2,10.1,30.4,10.1l0,0H1997.2z M2151,397.8c-5.1,0-10.1-2-14.2-6.1c-4-4-6.1-8.1-6.1-14.2    c0-5.1,2-10.1,6.1-14.2c4-4,8.1-6.1,14.2-6.1h27.3V175.3H2151c-5.1,0-10.1-2-14.2-6.1c-4-4-6.1-8.1-6.1-14.2    c0-5.1,2-10.1,6.1-13.2c4-4,8.1-5.1,14.2-5.1h93.1c5.1,0,10.1,2,13.2,5.1c4,4,5.1,8.1,5.1,13.2c0,5.1-2,10.1-5.1,14.2    c-4,4-8.1,6.1-13.2,6.1h-26.3v182.1h26.3c6.1,0,10.1,2,14.2,6.1c3,4,5.1,8.1,5.1,14.2c0,5.1-2,10.1-5.1,14.2    c-4,4-8.1,6.1-13.2,6.1H2153H2151z M2324,399.9c-5.1,0-9.1-2-13.2-6.1c-4-4-6.1-8.1-6.1-13.2V155c0-5.1,2-9.1,5.1-13.2    c3-4,8.1-6.1,13.2-6.1c3,0,6.1,1,9.1,2c3,1,5.1,3,7.1,6.1l121.4,175V154c0-5.1,2-10.1,6.1-13.2c4-4,8.1-6.1,14.2-6.1    c5.1,0,9.1,2,13.2,6.1c4,4,6.1,8.1,6.1,13.2v225.6c0,5.1-2,10.1-5.1,13.2c-4,4-8.1,5.1-13.2,5.1c-3,0-6.1-1-9.1-2    c-3-1-5.1-4-7.1-6.1l-120.4-175v163.9c0,5.1-2,10.1-6.1,13.2c-4,3-8.1,5.1-14.2,5.1l0,0L2324,399.9z"></path>
		<circle class="st0" cx="283.3" cy="283.5" r="283.3"></circle>
		<circle class="st1" cx="283.3" cy="283.5" r="274.2"></circle>
		<circle class="st2" cx="283.3" cy="283.5" r="268.1"></circle>
		<path class="st3" d="M123.4,253.2c-2-1-3-3-5.1-4c-2-1-3-3-5.1-4l-5.1-4c-1-1-2-1-2-2c-1-1-2-1-2-2c-6.1-6.1-13.2-12.1-19.2-18.2    c6.1,6.1,13.2,12.1,19.2,18.2l2,2c1,1,2,1,2,2l5.1,4c2,1,3,3,5.1,4C120.4,251.1,121.4,252.1,123.4,253.2L123.4,253.2z M39.5,252.1    c0,0,23.3,2,34.4,4c10.1,1,42.5,6.1,42.5,6.1L39.5,252.1z M39.5,252.1c6.1,1,13.2,1,19.2,2c3,0,6.1,1,10.1,1l5.1,1c2,0,3,0,5.1,1    l19.2,3l10.1,2c3,1,6.1,1,10.1,2c-3,0-6.1-1-10.1-1l-10.1-1l-19.2-3c-2,0-3-1-5.1-1l-5.1-1c-3,0-6.1-1-10.1-1    c-6.1-1-13.2-2-19.2-3l0,0V252.1z M114.3,268.3c0,0-24.3,6.1-32.4,9.1c-8.1,2-32.4,10.1-32.4,10.1l65.8-18.2l0,0L114.3,268.3z"></path>
		<path class="st3" d="M114.3,268.3c-5.1,2-11.1,3-16.2,5.1l-16.2,4c-5.1,2-11.1,3-16.2,5.1l-8.1,2c-3,1-5.1,1-8.1,2    c3-1,5.1-2,8.1-3l8.1-3c5.1-2,11.1-3,16.2-5.1c5.1-1,11.1-3,16.2-4c5.1-1,11.1-3,16.2-4l0,0l0,0V268.3z M51.6,301.7    c3-1,33.4-15.2,41.5-19.2c4-2,14.2-5.1,14.2-5.1L51.6,301.7z"></path>
		<path class="st3" d="M52.6,301.7c2-1,5.1-2,7.1-3l7.1-3l13.2-6.1c4-2,9.1-4,13.2-6.1c2-1,5.1-2,7.1-3l4-1c1,0,2-1,4-1    c-4,2-9.1,4-14.2,6.1c-4,2-9.1,4-14.2,6.1l-14.2,6.1c-5.1,2-9.1,4-14.2,6.1l0,0l0,0L52.6,301.7z M55.6,314.9    c0,0,28.3-16.2,37.4-22.3c5.1-3,21.2-11.1,21.2-11.1l-59.7,32.4L55.6,314.9z"></path>
		<path class="st3" d="M55.6,314.9c5.1-3,10.1-6.1,14.2-9.1l7.1-4c2-1,5.1-3,7.1-4c2-1,5.1-3,7.1-4c1-1,2-1,4-2l4-2    c5.1-2,10.1-5.1,15.2-7.1c-5.1,3-10.1,6.1-15.2,8.1c-2,1-5.1,3-7.1,4c-2,1-5.1,3-7.1,4c-2,1-5.1,3-7.1,4l-7.1,4L55.6,314.9    L55.6,314.9L55.6,314.9z M151.8,263.3c0,0-17.2,13.2-23.3,18.2c-6.1,4-22.3,16.2-22.3,16.2l9.1-12.1L151.8,263.3z"></path>
		<polygon class="st4" points="215.5,393.8 206.4,376.6 211.5,355.3 248.9,341.2 232.7,308.8 240.8,276.4 255,247.1 300.5,239     333.9,207.6 406.7,212.7 420.9,290.6 393.6,386.7 377.4,437.3 314.6,439.3 285.3,419.1 250.9,404.9   "></polygon>
		<path class="st5" d="M325.8,393.8c0,0-9.1,4-23.3,3c-4-6.1-34.4-8.1-34.4-8.1s-4-1-10.1,2c-7.1,3-13.2,2-19.2,4    c-6.1,1-12.1-6.1-16.2-8.1c-4-2-10.1-6.1-10.1-6.1l-13.2-1L174,368.5L133.5,328l-11.1,17.2l-3,21.2l12.1,25.3l33.4,30.4l63.7,16.2    l38.4-11.1l47.6-20.2l12.1-13.2l0,0H325.8z"></path>
		<polygon class="st6" points="97.1,251.1 105.2,226.8 115.3,210.7 146.7,207.6 137.6,234.9 111.3,281.5 122.4,323 103.2,333.1     97.1,324 92.1,302.7 92.1,279.5   "></polygon>
		<path class="st7" d="M132.5,391.8l-6.1-8.1c0,0-2-4-1-7.1c1-3,1-4,0-5.1c0-1-4-6.1-4-10.1s0-5.1,3-8.1c3-3,2-8.1,2-8.1l4,2l1-1    c0,0,1,1,1,3c0-2-1-14.2,2-16.2c3-3,8.1,12.1,8.1,12.1l-3-21.2l-8.1-22.3l-15.2-20.2l-1-22.3v-2c0,0-7.1,10.1-9.1,19.2    c-1,6.1,2,13.2,1,21.2c-1,8.1-1,8.1,1,11.1c2,3,7.1,10.1,5.1,15.2c-2,4-7.1,1-7.1,1s-1,3-3,5.1c-1-2-1-3-2-4c0,1,0,2,0,2    s-1-3-2-7.1c-1-5.1-3-12.1-4-16.2c-1,2-2,9.1-2,9.1l1,10.1l4,14.2l4,9.1l3,11.1l3,7.1l2,6.1l2,13.2l10.1,11.1l5.1,2l4-2l0,0l0,0    L132.5,391.8z"></path>
		<path class="st8" d="M103.2,230.9c0,0-7.1,13.2-10.1,25.3c-2,13.2-4,26.3-3,43.5c1,17.2,4,28.3,6.1,36.4    c4,13.2,13.2,30.4,13.2,30.4v-1c-2-3-3-6.1-4-9.1c-1-5.1-2-11.1-3-13.2c-1-3-3-5.1-3-8.1c-1-3-1-8.1-3-11.1c-1-1-2-5.1-3-9.1    c0-6.1,0-12.1,0-17.2c-1-9.1-2-15.2-1-19.2c1-5.1,6.1-18.2,9.1-28.3c2-7.1,1-12.1,4-18.2s6.1-11.1,6.1-14.2c1-3-9.1,14.2-9.1,14.2    l0,0l0,0L103.2,230.9z"></path>
		<path class="st9" d="M138.6,225.8c0,0-4,1-6.1,3c-2,2-3,3-5.1,7.1c-2,3-3,6.1-5.1,10.1c-2,4-6.1,10.1-7.1,12.1s-1,12.1-3,17.2    c-1,5.1,1,11.1,1,11.1l3-1c0,0,0,3,3,6.1c3,2,3-8.1,3-8.1l10.1-33.4l15.2-10.1l2-8.1l-10.1-6.1l0,0l0,0H138.6z"></path>
		<path class="st10" d="M145.7,241c0,0-7.1,0-10.1,3c-1,1-2,2-3,3c-3,2-5.1,4-7.1,7.1c-1,3-3,7.1-4,16.2c0,3,0,7.1-1,10.1    c0,4-1,7.1-1,9.1c0,4,5.1,7.1,5.1,12.1l9.1-5.1l9.1-34.4l19.2-12.1L150.7,238l-6.1,4l0,0l0,0L145.7,241z"></path>
		<path class="st11" d="M96.1,475.7v-1c1-12.1,2-20.2,3-26.3c1-8.1,2-11.1,2-14.2c0-5.1-1-8.1,0-12.1c1-5.1,5.1-10.1,5.1-14.2    c0-3-2-5.1-3-7.1c-1-2-2-3-2-3s9.1-6.1,9.1-32.4c0,0,0,0,1,0l5.1,13.2l3,4l12.1,22.3l15.2,15.2l23.3,15.2l14.2,16.2l1,42.5    l-19.2,24.3l-3,6.1c-24.3-12.1-47.6-28.3-66.8-47.6l0,0V475.7z"></path>
		<path class="st12" d="M153.8,515.2c0,0,0-5.1,5.1-9.1c1,1,1,2,1,3c1-1,6.1-10.1,18.2-12.1c12.1-2,15.2-11.1,15.2-11.1l26.3-23.3    l30.4-27.3l36.4-13.2l17.2-4c0,0,0,1,0,4c3,0,10.1-2,17.2-4c3-1,6.1-2,7.1,0c2,2,2,7.1,3,10.1c3-1,8.1-4,11.1-4    c5.1,1,10.1,7.1,15.2,7.1c7.1,0,10.1-4,15.2-8.1c3-2,7.1-4,9.1-6.1c6.1-4,65.8-22.3,65.8-22.3l21.2,1l3,22.3l-2,58.7c0,0,0,0-1,1    l-96.1,49.6l-132.5,20.2c-29.3-5.1-58.7-15.2-85-29.3L153.8,515.2L153.8,515.2L153.8,515.2z"></path>
		<path class="st5" d="M104.2,482.8c2-4,4-7.1,4-8.1c0,2,1,8.1,2,13.2c-2-2-4-3-5.1-5.1l0,0H104.2z"></path>
		<path class="st13" d="M201.3,538.5l17.2-5.1h1c0,0,1,0,1,2c2-1,4-1,5.1-2c1,1,1,6.1,4,7.1s6.1-1,10.1-4c3-3,7.1-6.1,10.1-7.1    c1,2,2,4,3,6.1c4-3,10.1-15.2,20.2-15.2c3-6.1,7.1-12.1,13.2-16.2c9.1-6.1,14.2-6.1,21.2-6.1c3-4,6.1-7.1,10.1-9.1c1,0,4,2,8.1,1    c4-2,8.1-9.1,14.2-10.1c1,0,1,0,2,0c3,0,5.1,1,7.1,2s17.2-17.2,29.3-22.3c0-1-1-6.1,12.1-18.2c1,1,0,3,1,3c0,0,4-1,8.1-5.1    c5.1-4,12.1-8.1,15.2-9.1c7.1-2,15.2,2,15.2,2c1,0,1-1,2-1c2,0,3-1,4-1c0,2,1,6.1,0,10.1c1,1,3,1,4,2c-1,2-2,6.1-5.1,8.1    c2,1,3,2,6.1,4c-1,2-4,5.1-5.1,7.1c-1,2-5.1,11.1-6.1,14.2c-2,3-4,10.1-5.1,11.1c-1,1-5.1,6.1-8.1,9.1c3-1,14.2-4,18.2-6.1    c-1,2-8.1,12.1-15.2,22.3c-41.5,25.3-89,38.4-138.6,38.4c-27.3,0-55.6-4-82-13.2l0,0L201.3,538.5z"></path>
		<path class="st14" d="M146.7,239c0,0-4,0-5.1,1c-1,1,4,2,5.1,2c1,1,5.1,3,5.1,5.1c1,2,28.3,13.2,28.3,13.2l19.2-1l7.1-9.1    L193.2,239l9.1-26.3l-12.1,2l-29.3,17.2l-14.2,5.1l-2,3l0,0L146.7,239z"></path>
		<path class="st15" d="M190.2,248.1c1,1,2,1,3,1l0,0c4,0,8.1,1,9.1,3c3,3,10.1,14.2,10.1,14.2l17.2,6.1l1-20.2L211.5,239l-21.2,8.1    V248.1L190.2,248.1L190.2,248.1z"></path>
		<path class="st16" d="M186.2,256.2c0,0,3,0,7.1-1c4-1,10.1-5.1,13.2-3c4,2,3,7.1,7.1,12.1c3,3,7.1,3,10.1,6.1c3,3,12.1,2,12.1,2    l3,19.2l-14.2,18.2l-5.1,22.3h-19.2l-17.2-7.1l-9.1-21.2l4-21.2l6.1-25.3l0,0L186.2,256.2z"></path>
		<path class="st17" d="M223.6,257.2h1c-1,0-2,1-1,4c0,3,2,6.1,1,8.1c1,1,2,2,2,4c1,2,1,4,6.1,5.1c-1,0-1,1-2,2c-1,1,3,3,5.1,6.1    c2,0,7.1-2,7.1-2l1,1l2-1c0,0-2-1-1-6.1c1-4,3-4,3-4s1-5.1,1-7.1c1-2,1-9.1,1-9.1l-1-16.2l-8.1-5.1l-7.1-6.1l-6.1,12.1l-4,4V257.2    l1,1l0,0L223.6,257.2z"></path>
		<path class="st18" d="M243.8,243c0,0,1,4,2,7.1c0-1,0-1,0-2c0-1,1,6.1,1,9.1h1c0,0,1,5.1,1,8.1c2-3,4-6.1,8.1-8.1c2-1,4-2,6.1-2    c3,0,6.1,2,10.1,2c10.1,0,19.2-7.1,26.3-10.1c5.1-2,9.1-3,12.1-6.1c1-1,4-4,6.1-8.1c3-5.1,6.1-10.1,10.1-11.1c-1,0-2,0-4,0h-1    c0,0,1-1,3-2c2-1,4-3,7.1-3c5.1,0,8.1,1,11.1,1s5.1-1,5.1-1s3,2,10.1,2s11.1,1,15.2,1s16.2-1,19.2-1c2,0,4,1,6.1,2l-11.1-32.4    L348,153l-24.3,17.2l-36.4,36.4l-35.4,13.2l-7.1,8.1V241l0,0L243.8,243z"></path>
		<path class="st19" d="M323.8,224.8c0,0,1-1,3-2s4-3,7.1-3c5.1,0,8.1,1,11.1,1c3,0,5.1-1,5.1-1s3,2,10.1,2s11.1,1,15.2,1    c4,0,16.2-1,19.2-1c2,0,4,1,6.1,2l-5.1-15.2l-6.1-11.1l-17.2-18.2l-20.2-12.1l-7.1-2l-18.2,11.1l-16.2,42.5v9.1l11.1,5.1    c3-4,6.1-8.1,8.1-9.1c-2,0-4,0-4,0l0,0l0,0L323.8,224.8z"></path>
		<path class="st20" d="M322.7,227.9c-2,0-3,0-3-1c-1-4-2-4-4-4c-1,0-3,2-4,3c-1,0-2-3-2-3h-1c0,0-6.1,4-10.1,8.1    c-4,4-11.1,12.1-14.2,13.2c-3,1-13.2,2-17.2,3c-4,1-8.1,3-8.1,4c-1,1,2,1,2,2s-3,0-4,1c0,0,1,3,1,4c1,0,2-1,3-1c3,0,6.1,2,10.1,2    c10.1,0,19.2-7.1,26.3-10.1c5.1-2,9.1-3,12.1-6.1c1-1,4-4,6.1-8.1c2-3,3-5.1,5.1-7.1l0,0l0,0H322.7z"></path>
		<path class="st21" d="M177.1,454.5c0,0-1-3-9.1-12.1c-2-2-4-4-5.1-6.1c-4-4-6.1-5.1-9.1-7.1c-6.1-5.1-13.2-5.1-18.2-10.1    c-5.1-6.1-11.1-16.2-15.2-27.3c-4-11.1-5.1-14.2-5.1-15.2c0,0,1-2,3-2c1,0,1,3,2,4c1,1,2,2,2,3c2,2,5.1,5.1,7.1,10.1    c0-4-2-8.1-2-8.1s8.1,5.1,15.2,10.1c7.1,5.1,10.1,7.1,12.1,10.1c2,3,7.1,12.1,9.1,15.2c2,3,33.4,12.1,33.4,12.1l15.2,11.1    l7.1,16.2l-6.1,9.1l-11.1,2l-18.2-8.1l-6.1-8.1l0,0l0,0L177.1,454.5z"></path>
		<path class="st22" d="M137.6,398.8c0,0,4,6.1,13.2,12.1c8.1,5.1,21.2,9.1,33.4,12.1c7.1,2,13.2,3,19.2,3c16.2,0,27.3-4,41.5-6.1    c7.1-1,16.2-1,26.3-4c12.1-3,19.2-6.1,29.3-11.1c7.1-3,14.2-6.1,19.2-9.1c7.1-4,13.2-9.1,19.2-11.1c-1,2-2,6.1-8.1,10.1    c3,0,8.1,0,8.1,0s-4,3-12.1,8.1c-5.1,4-11.1,10.1-17.2,14.2c-4,3-9.1,4-12.1,6.1c-7.1,4-10.1,6.1-15.2,11.1c2,0,2,0,2,0    s-6.1,1-10.1,3c-1,0-2,0-5.1,0c-2,1-5.1,2-8.1,3c-4,1-5.1,1-5.1,1l1,1c0,0-5.1,0-7.1,0l0,0h-1c-1,1-2,1-3,1s-1,0-2,0    c0,1,2,4,3,5.1c-1,0-11.1,8.1-11.1,8.1s1,1,1,2c0,1,0,2,1,3c1,1,1,2,1,2s-1,0-3,1c-2,0-4,1-7.1,2c-1,0-2,0-3,0c0,1,2,5.1-1,9.1    c-4,4-5.1,5.1-6.1,8.1c-1,0-1-1-2-1c-1-1-3-1-3-2c0,1-1,3-1,4c-1,3-3,6.1-3,8.1c-1-1-3-4-7.1-3c-3,1-6.1,5.1-6.1,6.1c0-1-1-1-1,0    s-2,11.1-11.1,20.2c0-2,0-7.1,0-8.1c-1,1-2,2-9.1,5.1c-6.1,3-5.1,6.1-5.1,6.1s-1-4,3-9.1c3-5.1,6.1-7.1,6.1-7.1v-1l-1-1    c1,0,6.1-3,6.1-8.1s-2-7.1-4-9.1l2-2c0,0-3-2-3-4c0-1,0-1,0-2c0-1,1-2,0-2c0-1-1-4-2-5.1h3c0,0-2-3-2-4c0-1-1-5.1-1-6.1    c1,0,3,0,3,0c0-1-2-2-1-3c1,0,2,1,3,2c-1-1-1-4-3-5.1c1,0,4-1,7.1,0c3,2,4,4,4,4s2,1,4,3c3,2,6.1,5.1,12.1,8.1c1,1,4,1,7.1,0    c1,0,2-1,3-1h1c0-1-1-2-2-3c1,0,2,0,2,0s1-1-2-4c1-1,1-1,1-2c-1,0-2-1-2-2c0,0,1-1,2-2c-1-1-2-3-3-3c1,0,1-1,2-1s-4-1-5.1-2    c-1-1-3-2-4-3c-1,0-3-1-4-2c1,0,2,0,3,0c1,0,1,0,1,0s0-1,2-1c1,0,2,0,2-1c1,0-2,0-4-2c-2-2-3-3-5.1-3c-1,0-3,1-5.1,1c-2,0-3-1-3-1    s-6.1,1-19.2-8.1c-12.1-7.1-17.2-13.2-17.2-13.2c-1,0-2-1-3-1c-4-2-10.1-7.1-10.1-13.2l0,0l0,0L137.6,398.8z"></path>
		<path class="st23" d="M305.5,123.7c1,0,2,1,3,2c2,2,3,7.1-1,12.1c2,1,3,1,4,1c-2,2-5.1,6.1-6.1,10.1c0,3,2,4,2,4s-3,3-3,9.1    c1-2,3-3,4-4c3-3,8.1-6.1,11.1-8.1l0,0c0,1,0,1,0,2s6.1-5.1,11.1-3c2,1,1,4,1,4s3-1,5.1,1c2,2,5.1,8.1,7.1,10.1c1,1,2,3,4,6.1    c2,4,5.1,8.1,6.1,13.2c0-2,1-6.1,7.1-4c7.1,2,14.2,7.1,21.2,17.2c6.1,10.1,8.1,21.2,11.1,25.3c3,4,7.1,11.1,7.1,14.2    c0,3-1,12.1,6.1,36.4c2-8.1,5.1-24.3,5.1-24.3l2-15.2l2-46.5l-48.6-40.5l-38.4-27.3l-24.3,2l2,3l0,0l0,0H305.5z"></path>
		<path class="st24" d="M396.6,193.5c0,0-1-4-12.1-12.1c-11.1-8.1-20.2-8.1-28.3-14.2c-6.1-5.1-13.2-17.2-17.2-20.2    c-4-4-5.1-15.2-5.1-15.2l14.2-12.1l21.2-30.4L386.5,70l8.1,12.1l12.1,14.2l6.1,27.3l2,40.5l-19.2,29.3l0,0H396.6z"></path>
		<path class="st25" d="M410.8,242c0-1,0-2,0-3c0-5.1-1-10.1-2-15.2c-3-9.1-10.1-26.3-13.2-32.4c-1-7.1,0-7.1,1-8.1    c1-1,6.1-4,9.1-13.2c3-10.1,11.1-10.1,11.1-10.1l5.1-4l8.1,20.2l7.1,18.2l2,14.2l2,12.1l-4,24.3l-18.2,17.2l-8.1-18.2l0,0l0,0V242    z"></path>
		<path class="st26" d="M151.8,517.2v-1l1-1l1-1c0,0,3-1,4-1s4,1,6.1,1c3,0,7.1-3,13.2-1c9.1,2,11.1,8.1,16.2,11.1c4,2,7.1,1,8.1,1    h1c0,0,2-2,3-2c2,0,2,2,3,2c3,0,8.1-1,10.1-1c2,0,3,2,3,3c1,2,0,4-1,5.1c-3,3-5.1,5.1-6.1,7.1c1,1,1,1,2,2    c-22.3-6.1-44.5-14.2-64.8-26.3l0,0V517.2z"></path>
		<path class="st27" d="M395.6,425.1c0,0,7.1-9.1,10.1-14.2c2-5.1-8.1-66.8-8.1-66.8l20.2-67.8l-1-22.3c0,0,1-20.2,3-29.3    c3,5.1,12.1,11.1,13.2,14.2c1-6.1,4-19.2,3-33.4c2,3,6.1,29.3,6.1,29.3l4,17.2l5.1,19.2l6.1,20.2l3,14.2l2,3l2,6.1l2,6.1l5.1,14.2    l3,12.1l2,21.2c0,2,1,3,1,5.1s0,4,0,4s1,5.1,0,9.1c0,4,0,6.1-3,9.1c-3,3-5.1,18.2-5.1,18.2l-5.1-3c0,0,1-5.1-1-9.1    s-7.1-5.1-10.1-4c-3,1-8.1,1-9.1,3c-2,1-5.1,6.1-9.1,8.1c-4,3-12.1,3-16.2,4c-4,1-8.1,4-13.2,7.1c-4,2-7.1,4-11.1,6.1l0,0l0,0    L395.6,425.1z"></path>
		<path class="st28" d="M395.6,525.3c0,0,0,0,1,1c32.4-15.2,61.7-36.4,86-63.7c0-9.1-1-19.2-1-22.3c-1-7.1,0-15.2,0-19.2    s-3-22.3-4-27.3c-1-5.1-4-7.1-4-7.1s-2,9.1-2,11.1s0,7.1,0,9.1v-1c0,1-1,3-1,3v-2c0,0-1,0-1-1c0-1,0-1,0-2c0-1-1,2-2,7.1    c-1,5.1-1,5.1-1,6.1c0,1-2,2-2,3c0,1,2,2,2,3s-2,6.1-2,9.1c-1,3,0,8.1-1,10.1c0,2-1,4-2,5.1c1,0,2,1,2,1s2,7.1-2,12.1    c-1,2-2,3-3,5.1c-3,3-5.1,7.1-6.1,10.1c0-1,0-1,0-2c0-1-5.1,5.1-7.1,9.1c-3,4-6.1,4-7.1,5.1c-1,1-1,3-1,4c-1,0-3,1-4,4    c-1,2-2,4-4,5.1c-2,1-5.1,2-6.1,2c1,0,2,0,2,1c-1,1-4,3-7.1,5.1c-3,2-5.1,5.1-6.1,7.1c-1,2-2,3-4,3c1,1,2,2,3,2c-1,0-3,0-6.1,3    c-3,3-4,3-6.1,4l0,0l0,0L395.6,525.3z"></path>
		<path class="st29" d="M331.8,546.6c2-1,4-2,6.1-3c7.1-3,15.2-3,17.2-4c3-1,5.1-2,9.1-3c0,1,0,2,0,2c-10.1,3-21.2,6.1-31.4,8.1l0,0    H331.8z"></path>
		<path class="st30" d="M463.4,359.4c0,0-1,8.1-4,13.2c-3,5.1-5.1,12.1-5.1,12.1c0-2,0-3,1-5.1c-3,2-11.1,6.1-13.2,9.1    c-2,2-6.1,5.1-7.1,7.1c2-6.1,4-12.1,5.1-14.2c-3,2-18.2,15.2-26.3,23.3l-25.3,20.2c-3,2-6.1,3-9.1,4c-4,2-9.1,3-13.2,5.1    c1-3,3-5.1,5.1-7.1s9.1-10.1,11.1-13.2c1-4,1-6.1,0-9.1c-1,0-4,0-6.1,1c-2,1-4,3-4,3s1-8.1,5.1-16.2c-2,0-6.1,1-6.1,1    s6.1-9.1,15.2-16.2c-3,1-6.1,2-9.1,3c-6.1,2-12.1,6.1-16.2,8.1c3-4,21.2-29.3,31.4-53.6c11.1-24.3,15.2-30.4,17.2-43.5    c1-6.1,1-16.2,1-24.3c0-8.1,1-16.2,1-21.2c3,3,13.2,13.2,14.2,35.4c0,22.3-10.1,52.6-21.2,68.8c3,1,10.1,2,17.2-11.1    C429,327,429,323,432,317.9c0,3,0,3,0,3s10.1-13.2,15.2-29.3c1,7.1,4,13.2-1,25.3c-4,11.1-10.1,14.2-10.1,14.2s3,0,7.1-3    c1,2,1,4,2,4c1,1,3,2,3,3c1-2,3-4,4-6.1c0,4-1,19.2,1,27.3c3,0,7.1-1,10.1-7.1c-2,6.1-2,10.1-1,15.2c2-1,4-4,4-4l0,0l0,0    L463.4,359.4z"></path>
		<path class="st31" d="M345,106.5c0,0-3,1-9.1,1c-5.1,0-4-2-12.1-2c-12.1,0-56.7,7.1-63.7,7.1c-5.1,0,17.2,2,17.2,2l55.6,1l11.1-1    l4-8.1H345z"></path>
		<path class="st32" d="M200.3,215.7c0,0-7.1,5.1-10.1,10.1c-3,4-5.1,7.1-8.1,10.1l0,0c1,0,1,0,2,0c1,0,0,1-1,1l0,0c1,0,2,0,2,1    c-1,1-4,3-2,6.1c2,2,5.1,3,5.1,3s-1,2,2,2c7.1,0,15.2-3,18.2-3c4,1,6.1,1,8.1,6.1c3,4,5.1,5.1,5.1,5.1s2-4,1-10.1    c1-3,2-7.1,2-10.1l-2-17.2l-10.1-13.2l-13.2,7.1l-1,3l0,0L200.3,215.7z"></path>
		<path class="st33" d="M212.5,212.7c0,0,1,2,5.1,3c0,1,0,1,0,2s0,2,0,2l1-1c0,1,0,3,0,4s0,1,1,2l0,0c0,0,1,2,3,4l0,0v-1    c0,1,0,1,1,2l0,0c0,0,0,7.1,1,11.1c0,0,0-1,1-1c0,0,0,2,0,4s0,4,0,4c1-1,2-1,3-2s4-2,5.1-6.1c1-2,1-4,2-6.1c0,1,1,2,1,3s2,1,2,1    v-5.1l3-11.1l2-7.1l12.1-18.2l21.2-16.2l19.2,4l16.2-21.2l-27.3-16.2l-26.3,3l-23.3,32.4l-19.2,29.3l-3,5.1l0,0l0,0L212.5,212.7z"></path>
		<path class="st34" d="M348,166.1c0,0-2,0-6.1,3c-5.1,2-8.1,3-10.1,7.1c-2,3-2,6.1-2,6.1s3-1,5.1-2c2,0,4,0,4,0c0,1-1,1-1,1    s4,0,3,2c0,2-1,4-1,5.1c-1,1-3,2-4,3c-1,2,0,2,0,4c0,2-2,5.1-7.1,11.1s-7.1,10.1-7.1,10.1s-2-5.1-4-9.1c-1,0-6.1,3-6.1,3    l-11.1-39.5v-3c0,0,1-1,1-3c-2-1-2-1-4-3c-2-2-4-5.1-8.1-6.1c-1-1-1-2-4-3s-4-1-4-1s1-1,2-2c-2,0-3,1-7.1,1c-4,0-4,0-6.1,0    s-4,1-5.1-2c-1-1-3,0-5.1,3c-2,3-2,5.1-6.1,6.1c0,2-1,3-2,4c-1,2-3,3-5.1,6.1c-3,4-3,10.1-8.1,15.2c-5.1,5.1,1-14.2,1-14.2    l9.1-21.2l24.3-24.3l38.4-3l4,20.2l19.2,6.1l12.1,18.2l0,0l0,0L348,166.1z"></path>
		<path class="st23" d="M354.1,170.2l-16.2-23.3l-11.1-9.1c0,0-8.1-15.2-9.1-15.2c0,0-8.1-1-13.2-1l1,2c1,0,2,1,3,2    c2,2,3,7.1-1,12.1c2,1,3,1,4,1c-2,2-5.1,6.1-6.1,10.1c0,3,2,4,2,4s-3,3-3,9.1c1-2,3-3,4-4c3-3,8.1-6.1,11.1-8.1l0,0c0,1,0,1,0,2    s6.1-5.1,11.1-3c2,1,1,4,1,4s3-1,5.1,1c2,2,5.1,8.1,7.1,10.1c1,1,2,3,4,6.1c2,4,5.1,8.1,6.1,13.2c0-2,0-4,4-4l-5.1-9.1l0,0H354.1z    "></path>
		<path class="st35" d="M111.3,237c0,0-1-3,0-8.1s3-8.1,3-16.2c1-8.1,6.1-18.2,6.1-18.2l15.2-7.1l10.1,3l3,14.2l-13.2,7.1    c0,0-1,3-4,5.1c-4,2-9.1,4-10.1,7.1c-1,2-1,3-2,5.1c0,2-4-1-6.1,2c-2,2-2,5.1-2,7.1l0,0V237z"></path>
		<path class="st36" d="M141.6,232.9c0,0-1,1-2,3c-1-1-3-10.1-3-18.2s-1-10.1,1-12.1c2-3,9.1-5.1,8.1-10.1c-1-5.1-5.1-6.1-10.1-5.1    c-4,1-6.1,9.1-10.1,12.1c-3,3-6.1,2-7.1,4s0,4,0,6.1c0,0-1,3-3,6.1c-4,6.1-11.1,14.2-12.1,22.3c0-4,0-4,1-9.1l-1-1l4-15.2l3-12.1    l6.1-20.2l11.1-21.2l11.1-12.1l12.1,1l1,17.2l7.1,33.4l14.2,17.2l-22.3,15.2l-9.1,1l0,0l0,0V232.9z"></path>
		<path class="st37" d="M148.7,239c0,0-2,0-3,0s-1-1-1-1s1-1,1-2l0,0c0-1,0-1-1-1s-1,1-1,1s-1-1-2-1h1c-1-1-3-1-4-1c1-1,3-3,5.1-3    c1,0,2,0,2-1s-1-2-3-2c0-1,1-1,0-4c-1-2-1-4,0-4c0-1,1-2,2-3s1-2,2-2c0,0,2-1,3-1c2-1,3-1,4-1c1,1,1,2,1,2s3-1,6.1,0    c3,1,10.1,2,10.1,2l2,5.1L156.8,236l-7.1,3H148.7L148.7,239L148.7,239z"></path>
		<path class="st38" d="M171,216.7c0,0-5.1,3-6.1,5.1c1,0,2,1,1,1c-1,1-4,3-6.1,5.1c-2,2-4,5.1-4,6.1c-1,1-6.1,5.1-8.1,5.1    c4,0,11.1-5.1,14.2-5.1c0,1,1,3,2,3c2,0,6.1,1,12.1-3c6.1-4,4-6.1,7.1-8.1c5.1-3,7.1-6.1,10.1-8.1c3-2,4-2,4-2s0-1,1-1    c0,0,1,0,1,1c0,0,5.1-3,11.1-4l0,0c0,0,0,0,1,0c0,0,0,0,1,0c0,0,1,2,1,3c1,0,3-5.1,3-5.1l5.1-13.2v-12.1l-4,1l-27.3,11.1    L174,213.7l-2,4l0,0L171,216.7z"></path>
		<path class="st39" d="M248.9,157c1,0,3-1,4-2c-1,1-1,3-3,6.1c-2,3-2,4-4,8.1c-2,4-2,9.1-4,11.1c1,0,2-1,3-1s-2,2-3,3    c-1,2-2,5.1-5.1,7.1c-3,2-8.1,3-12.1,9.1c-5.1,5.1-9.1,11.1-12.1,13.2c1-2,3-6.1,3-9.1c0-3,0-6.1,1-10.1c1-4,1-6.1,4-13.2    c4-6.1,10.1-29.3,10.1-29.3l14.2-4l4,10.1l0,0l0,0V157z"></path>
		<path class="st40" d="M239.8,148.9c0,0-4,6.1-5.1,11.1c-1,5.1,0,5.1-1,7.1c0,1,0,2,0,2c0,1,0,2,0,2c1-2,3-4,6.1-6.1    c4-2,7.1-4,9.1-6.1c2-2,3-6.1,8.1-8.1c-2,0-4-1-4-1c2-2,7.1-5.1,12.1-8.1c5.1-4,5.1-5.1,13.2-9.1c-3,0-4,0-6.1,0c1-2,4-3,7.1-6.1    c3-3-2-8.1-2-8.1l-24.3,14.2l-12.1,14.2l0,0L239.8,148.9z"></path>
		<polygon class="st41" points="174,137.8 174,133.8 181.1,122.6 188.2,102.4 188.2,76.1 188.2,60.9 189.2,50.8 190.2,47.8     191.2,46.8 197.3,49.8 205.4,60.9 205.4,82.2 198.3,115.6 175,139.8   "></polygon>
		<path class="st31" d="M192.2,44.7c0,0-4,0-4,15.2c-1,15.2-1,23.3-2,30.4s-2,12.1-2,16.2c-1,4-1,10.1-3,14.2c-1,2-3,7.1-7.1,11.1    c-5.1,4-13.2,7.1-14.2,8.1c-2,0-12.1,1-16.2,4c-1,1-4,2-7.1,4c-5.1,5.1-13.2,14.2-18.2,24.3c-8.1,16.2-16.2,61.7-16.2,61.7l2-3    c0,0,0-4,4-11.1s3-15.2,8.1-29.3c2-5.1,5.1-12.1,8.1-18.2c5.1-9.1,11.1-17.2,18.2-22.3c10.1-7.1,22.3-9.1,22.3-9.1l12.1-8.1    c0,0,2-4,5.1-9.1c4-7.1,9.1-14.2,10.1-25.3c2-16.2-2-26.3-2-36.4c0-9.1,0-16.2,2-18.2c2-2,1-1,1-1l0,0l0,0L192.2,44.7z"></path>
		<path class="st42" d="M192.2,116.6c0,0,5.1-13.2,8.1-25.3c0-2,1-5.1,2-7.1c1-11.1,1-16.2,0-22.3c-1-4-5.1-9.1-8.1-12.1    c-2-3-3-4-3-5.1c0-1,2-2,4-2c4,0,7.1,2,10.1,4c3,4,6.1,18.2,6.1,18.2l3,18.2l7.1,23.3l-29.3,9.1l0,0l0,0V116.6z"></path>
		<path class="st43" d="M242.8,103.4c0,0-1,0-3,0l0,0c0,1-1,3-2,3c-2-1-20.2,1-20.2,1s-8.1-1-11.1-12.1c-2-7.1,1-17.2,0-24.3    c-2-10.1-4-12.1-4-15.2c0-3,0-4,0-6.1c-1,0-2-1-3-1c0-1,0-2-1-3c1,0,4,1,9.1,5.1c4,3,4,5.1,4,5.1c1,1,6.1,5.1,9.1,10.1    c2,5.1,7.1,20.2,8.1,22.3c0,1,1,2,3,4c3,3,6.1,9.1,11.1,10.1l0,0l0,0V103.4z"></path>
		<path class="st31" d="M213.5,56.9c3,4,5.1,9.1,7.1,14.2c3,6.1,4,11.1,8.1,15.2c-2-5.1-5.1-16.2-7.1-19.2    C219.5,62.9,215.5,58.9,213.5,56.9L213.5,56.9L213.5,56.9z"></path>
		<path class="st44" d="M182.1,131.7c0,0-5.1,1-13.2,6.1c-3,1-5.1,3-8.1,4c-7.1,3-14.2,6.1-20.2,7.1c0,1,1,1,1,1s0,2,1,3    c-1,1-10.1,7.1-7.1,27.3c2-1,4-2,4-2c1,0,1,2,1,2c1,0,3-1,5.1-4c0,1-1,14.2,6.1,22.3c1-2,5.1-7.1,5.1-7.1v-2c0,0,0-6.1,2-11.1    s6.1-9.1,6.1-9.1l19.2-28.3l-3-10.1l0,0l0,0L182.1,131.7z"></path>
		<path class="st45" d="M163.9,173.2c-1,1-2,1-3,1c0-1-1-5.1,2-9.1c3-5.1,10.1-11.1,12.1-15.2c1-3,1-11.1,12.1-20.2    c11.1-10.1,15.2-13.2,15.2-13.2l18.2-9.1l22.3,9.1l-11.1,42.5l-8.1,20.2l-33.4-6.1l-25.3,1l0,0l0,0L163.9,173.2z"></path>
		<path class="st46" d="M177.1,162.1l4-5.1v-4c0,0,5.1-1,10.1-6.1c5.1-5.1,12.1-15.2,18.2-14.2c6.1,1,7.1,13.2,7.1,17.2    c0,3,1,11.1,2,16.2c1,4-15.2,20.2-15.2,20.2l-11.1,8.1L177.1,162.1L177.1,162.1z"></path>
		<path class="st47" d="M189.2,204.6c0,0,3-5.1,1-6.1c1-3,4-7.1,4-7.1s2-5.1,8.1-10.1c6.1-6.1,10.1-10.1,11.1-14.2c1-3,1-5.1,1-8.1    c1,1,1,1,2,1s6.1,4,5.1,12.1s-4,11.1-4,11.1s-3,3-5.1,4c-2,1-3,3-6.1,3l1-1c0,0-4,0-6.1,1c-2,2-6.1,7.1-8.1,9.1c-2,1-4,3-4,3l0,0    l0,0V204.6z"></path>
		<path class="st48" d="M342,115.6c-5.1-2-11.1-3-17.2-3c-10.1,0-23.3,0-37.4,0c-15.2,0-28.3-5.1-46.5-6.1c-3-2-11.1-10.1-35.4,7.1    c1,0,17.2-4,23.3,3s4,19.2,3,21.2c-1,6.1-6.1,15.2-8.1,22.3c-2,6.1-1,10.1-3,14.2c-1,4-4,7.1-3,12.1c2-1,4-1,8.1-10.1    c4-9.1,3-15.2,10.1-23.3c6.1-8.1,17.2-18.2,21.2-20.2c4-3,36.4-19.2,70.8-3C335.9,128.7,342,115.6,342,115.6L342,115.6L342,115.6z    "></path>
		<path class="st49" d="M218.5,109.5v-1c0-1-1-1-1-2c-1-1-8.1-1-12.1-1c-7.1,1-13.2,10.1-16.2,14.2c-3,4-7.1,11.1-11.1,15.2l0,0v-1    c0,0,0,0,0,1v1l1,1c0,0,6.1-3,15.2-11.1s16.2-13.2,20.2-14.2c2-1,4-1,6.1-2l0,0l0,0H218.5z"></path>
		<path class="st50" d="M375.4,75.1c0,0-1,2-3,4c-4,4-9.1,9.1-14.2,14.2c-4,5.1-9.1,8.1-14.2,15.2c-5.1,6.1-12.1,13.2-13.2,15.2    c-1,2-3,5.1-3,7.1c-1-1-2-1-2-1c0,1,1,1,1,2c1,2,3,4,4,5.1c1,2,2,3,2,5.1c1,0,4,1,8.1-6.1s10.1-15.2,10.1-15.2l9.1-13.2l6.1-11.1    l7.1-13.2l1-6.1l0,0l0,0L375.4,75.1z"></path>
		<path class="st31" d="M384.5,66c0,0-5.1,4-8.1,7.1c-2,3-7.1,10.1-7.1,10.1h2l9.1-8.1l4-6.1v-2l0,0V66z"></path>
		<path class="st51" d="M382.4,430.2c0,0,0-4,2-6.1c2-2,8.1-5.1,13.2-18.2c5.1-12.1,6.1-15.2,6.1-15.2s-9.1,8.1-15.2,10.1    c1-3,2-5.1,3-6.1c-1-1-4-1-4-2c2-2,3-6.1,6.1-9.1c5.1-4,13.2-10.1,20.2-15.2s20.2-18.2,22.3-22.3c1,1,1,2,1,2s-7.1,9.1-10.1,14.2    c-3,5.1-3,7.1-3,7.1l6.1-3c0,0,2,7.1-6.1,17.2c4-1,5.1-1,7.1-2c-3,2-8.1,5.1-12.1,13.2s-10.1,17.2-20.2,23.3    c-10.1,6.1-15.2,11.1-15.2,11.1l0,0l0,0L382.4,430.2z"></path>
		<path class="st52" d="M358.2,120.6c0,0-4,8.1-4,14.2c0,1,0,3,0,4c0,5.1,0,11.1-1,14.2c0-1-1-2-1-2c-1,2-2,8.1-3,10.1    c0-1-1-6.1-1-12.1s0-7.1,0-8.1c0,2-1,4-2,6.1c-1-1-1-3-2-4c-1,1-1,2-2,3c0-1,0-2,0-4s0-5.1,0-6.1s2-6.1,6.1-10.1    c5.1-5.1,10.1-15.2,11.1-18.2c1-3,8.1-16.2,8.1-16.2h5.1l-7.1,16.2c0,0-4,9.1-6.1,12.1c-2,3-7.1,12.1-9.1,16.2c1-2,3-3,4-5.1    c1-1,5.1-7.1,5.1-7.1l0,0l0,0L358.2,120.6z"></path>
		<path class="st53" d="M384.5,66c-1,2-2,5.1-4,6.1c-3,3-9.1,8.1-12.1,11.1c-3,3-8.1,13.2-6.1,24.3c1-2,3-7.1,7.1-13.2    c4-5.1,9.1-12.1,12.1-17.2c2-5.1,3-9.1,3-9.1l1-1l-1-3h-1l0,0L384.5,66z"></path>
		<path class="st31" d="M477.5,369.5c0,0-2-5.1-2-9.1c-1-4,1-5.1-1-10.1c-1-3-3-3-3-3s-1-5.1-1-8.1c0-3,0-6.1-1-7.1c-1-1-1-1-2-4    c-1-3-2-5.1-2-6.1c-1-1-2-2-2-3c0-2,2-3,2-4c0-1-1,0-2-1c0-1,1-4,1-4s-2,2-2,1c0-1-1-6.1-2-10.1c-1-3-2-6.1-2-7.1    s-6.1-19.2-8.1-23.3c-1-4-2-7.1-3-11.1c0-2-1-6.1-1-6.1v3c0,0-1-8.1-2-9.1c0-1-2-5.1-3-8.1c0-3-1-11.1-2-16.2c-1-5.1-1-8.1-1-9.1    s0-1,0-2c0-3,0-5.1-1-8.1c-1-6.1-3-13.2-4-17.2c-3-8.1-11.1-27.3-13.2-32.4c0-1,2-1,2-1s4,10.1,7.1,17.2c3,8.1,5.1,14.2,6.1,15.2    c1,1,5.1,8.1,7.1,20.2c2,12.1,3,23.3,4,31.4c1,4,1,7.1,2,11.1c1,4,3,8.1,6.1,15.2c2,5.1,4,10.1,5.1,14.2c1,5.1,1,9.1,2,11.1    s1,6.1,3,13.2c2,6.1,5.1,14.2,7.1,19.2c4,10.1,5.1,18.2,6.1,22.3c0,5.1,2,20.2,2,25.3l0,0l0,0L477.5,369.5z"></path>
		<path class="st54" d="M384.5,65v1c0,0,1,0,1,1l0,0c0,1,0,2,0,4c0,2-1,3-1,4c0,2,0,5.1-3,11.1c-1,2-1,3-2,4c-1,2-1,3-2,4    c2-1,7.1-4,10.1-4c-2,1-5.1,3-7.1,6.1c0,0,2,0,5.1,0c5.1-1,11.1-3,16.2-2c5.1,0,3-6.1,3-6.1l-6.1-14.2L386.5,66h-2l0,0V65z"></path>
		<path class="st55" d="M415.8,168.2c0,0-5.1-5.1-7.1-23.3c-2-18.2-2-45.5-2-45.5l-4-10.1c0,0-1-7.1-3-10.1s-7.1-7.1-9.1-9.1    c-2-2-4-5.1-6.1-5.1c1-1,4-8.1,15.2-8.1c12.1,0,15.2,6.1,16.2,9.1c1,2,7.1,13.2,9.1,32.4c2,19.2,2,21.2,2,28.3c0,4-1,12.1-4,21.2    c-2,8.1-4,16.2-8.1,20.2l0,0H415.8z"></path>
		<path class="st52" d="M399.6,184.4c0,0,0,0,1,0c2,0,3,0,4-1c2,0,8.1,1,12.1-5.1c0,1,1,5.1-1,8.1c1-1,3-2,3-2c0,2,2,7.1-5.1,19.2    c2-2,4-2,6.1-2c0,2,1,10.1-2,15.2c-2,3-6.1,2-6.1,2v-1v-1c0-1-1-2,0-3c-2-1-3-2-5.1-3c-4-4-9.1-10.1-9.1-15.2c0-5.1,4-6.1,4-6.1    l-1-1c0-1,0-2-1-3l0,0V184.4z"></path>
		<path class="st56" d="M364.2,126.7c0,0,0,0-1,1c0-1,0-3,1-4c1-1,1-2,2-3c-1,1-1,3-1,3s2-3,4-5.1c2-1,4-2,5.1-3c1-1,1-2,1-2    s2-1,6.1-6.1c0-1,1-1,2-2c1,0,3-1,5.1-2s5.1-3,6.1-4c3-1,6.1-1,8.1-3c1,0,2-4,2-7.1c2,1,10.1,6.1,13.2,18.2c2,8.1-2,21.2-3,27.3    c-2,6.1-2,11.1-4,14.2c-3,4-12.1,9.1-14.2,12.1c-2,2-8.1,8.1-7.1,11.1c0,3,4,4,5.1,5.1c1,1,1,1,2,1c1,0,2-1,3-1c1,0,1,0,1,0    s0,0,1,0c0,0,0,4-10.1,5.1c-1,0-1,0-2,0c1-1,2-1,3-2c-1,0-5.1,0-6.1-1c0-1,1-2,2-3c1-1,0-1-1-1c-1,1-2,2-3,3c-1,1-2,2-4,4    c-1-2,0-5.1,2-8.1c-1,0-2,2-3,1c0-1,0-1,0-2s0-2,0-3c1-2,3-6.1,3-6.1l14.2-25.3l3-19.2l-33.4,6.1l0,0l0,0L364.2,126.7z"></path>
		<path class="st57" d="M363.2,127.7c0,0-1,1,1,2c0,0-1,1-1,2c-1,1-2,1-2,2c-1,2-1,3-1,3c0,1,0,5.1-2,8.1c-1,1-1,3-2,4c-1,2-2,4-2,4    c0,2-1,6.1-1,6.1s1-1,1-2c-1,1-1,2-2,3c1,0,2-2,5.1-4c4-3,10.1-8.1,17.2-13.2c-2,1-4,1-5.1,1c1-1,11.1-13.2,17.2-14.2v-1l0,0h-5.1    l-9.1,2l-1-7.1l-6.1,4l0,0H363.2z"></path>
		<path class="st58" d="M378.4,169.2c0,0-1,1-2,4c-1-1-2-2-2-3c-2-3-4-6.1-10.1-4c0-2,0-3,0-4c1,0,4-3,7.1-6.1c2-2,4-5.1,5.1-9.1    c1-1,2-2,4-3c3-2,6.1-5.1,7.1-8.1c-1,1-4,2-9.1,2c2-1,4-2,4-5.1c1,0,1-1,1-1h-1l0,0c0,0,0-1-1-1s-1,0-1,1c0,0-1,0-2,1    c-1,1-3,2-4,3c0-1,1-1,1-1s-2,0-4,1c-3,1-6.1,3-10.1,5.1c0-1,0-1,1-1h1v-1c1-2,2-4,4-6.1c2-2,2-5.1,2-5.1l7.1-3l19.2-4l13.2,1    l-2,9.1l-7.1,15.2l-6.1,14.2l-7.1,9.1l-7.1,5.1l0,0l0,0L378.4,169.2z"></path>
		<path class="st59" d="M409.8,130.7c0,0-8.1,9.1-10.1,11.1c1-3,10.1-20.2,13.2-25.3c-1-1-2-1,1-9.1c-2,4-2,6.1-4,8.1c-2,1-2,1-3,1    v-1l0,0c0,0-6.1-1-11.1-1c-4,0-13.2,2-18.2,4c-4,2-6.1,2-7.1,3c-1,1-2,2-3,3c-1,0-3,1-4,2c-1,1-1,2-1,2s0,1,0,0c0,0,2-1,4-2    c3-1,6.1-3,8.1-4c6.1-3,9.1-2,11.1-3c3-1,7.1-2,10.1-2s8.1,0,10.1,0c-1,0-1,1-1,3c0,1,0,1-1,2c-1,4-4,10.1-5.1,13.2    c-2,4-4,8.1-5.1,10.1c-1,2-4,8.1-6.1,11.1c-2,3-4,5.1-4,6.1c-1,1-6.1,5.1-6.1,6.1c1,0,7.1-3,12.1-8.1c5.1-5.1,5.1-8.1,9.1-11.1    c4-3,6.1-8.1,8.1-11.1C407.7,134.8,407.7,133.8,409.8,130.7L409.8,130.7L409.8,130.7z"></path>
		<path class="st60" d="M243.8,201.6c0,0-1,4-3,6.1c-2,2-6.1,4-7.1,7.1c-1,3,4,5.1,4,5.1s-2,4-2,7.1c0,3,0,4,0,7.1l-1,1    c0,0,0,3,2,5.1c2,2,4,3,5.1,2v1c0,0,2-4,3-8.1c1-4,2-3,3-8.1c0-5.1,5.1-14.2,5.1-14.2l3-8.1l-5.1-4l-8.1,1l0,0H243.8z"></path>
		<path class="st61" d="M255,208.6c-1,1-2,2-3,4c-1,2-3,4-5.1,5.1c-2,1-3,1-3,3c0,2,2,3,3,4s2,3,2,5.1c1,0,2-1,3-3    c1-2,9.1-17.2,9.1-17.2H255l0,0V208.6z"></path>
		<path class="st62" d="M286.3,174.2c0,0,1-2,0-3c-1-1-5.1-2-7.1-3c-2-2-5.1-3-7.1-2c0-1,2-2,1-3c-1,0-5.1,1-6.1,2c-1,1-3,2-4,2    c0,1-1,2-2,1l-1-1c-1,0-4,3-5.1,5.1c-1,2-2,6.1-7.1,10.1c-5.1,4-7.1,7.1-5.1,9.1c1,2,2,0,2,2c0,1,0,1,0,1c0,1,0,2,0,3    c-1,2-1,5.1,0,5.1c3,1,6.1-1,7.1,0s-1,6.1,2,6.1c3,1,6.1-1,6.1-1l12.1-6.1l11.1-6.1l6.1-12.1l-3-10.1l-1-1l0,0L286.3,174.2z"></path>
		<path class="st63" d="M275.2,202.6c0,0-2-3,0-6.1c2-3,6.1-4,7.1-5.1l-1-1c1-2,2-3,4-4c-1-1-2-1-3-1c-2,0-4,1-6.1,1s-2-1-2-1    s3,0,3-2c0-2-1-2-1-2s6.1-3,8.1-4c1-1,1-3,1-4c1,0,5.1-2,7.1-1s1,4,1,4s5.1-4,8.1-8.1c2,0,4-2,5.1-2c2,0,6.1,3,6.1,10.1    c0,4,1,6.1,0,12.1c0,4,0,12.1,1,16.2c1,3,3,3,3,3c0,1-1,2-2,2c-1,1-1,4-1,5.1s0,2,1,2c0,1-1,2-2,3c0,1-2,2-3,2c-1,0-1,0-2,0    c-1,0-2,0-3,0c-1,0-2-1-1-4c0-3-11.1-10.1-11.1-10.1l-19.2-7.1l0,0l0,0L275.2,202.6z"></path>
		<path class="st64" d="M252.9,230.9c0,0,4,5.1,21.2,5.1c8.1,0,11.1-1,13.2-1s9.1-3,15.2-11.1c6.1-7.1,5.1-10.1,5.1-10.1l-4-1    l-12.1,2L257,229.9L252.9,230.9L252.9,230.9z"></path>
		<path class="st65" d="M266.1,232.9c0,0-15.2,3-15.2-6.1c0-9.1,9.1-19.2,11.1-20.2c2-2,8.1-4,8.1-4h14.2l3,7.1l-1,15.2L266.1,232.9    L266.1,232.9z"></path>
		<path class="st66" d="M279.2,205.6c0,0-3-3-9.1,1c-6.1,3-12.1,11.1-12.1,17.2s5.1,10.1,13.2,10.1c6.1,0,10.1,0,11.1-1c0-1-3-3-3-3    V205.6L279.2,205.6L279.2,205.6z"></path>
		<path class="st67" d="M276.2,206.6c0,0-1-1-3,1c-2,1-4,3-6.1,5.1c-1,1-2,1-3,2c-3,3-5.1,9.1-4,12.1c1,3,6.1,6.1,17.2,4l-2-23.3    l0,0l0,0L276.2,206.6z"></path>
		<path class="st65" d="M273.2,212.7c0,0-2,3-2,7.1c0,5.1,3,12.1,12.1,12.1c7.1,0,12.1-11.1,17.2-15.2c4-3,6.1-3,6.1-3    s-4-4-15.2-10.1c-11.1-6.1-23.3-7.1-30.4,2c3,0,13.2-3,13.2-3l5.1,2l-8.1,8.1l0,0l0,0H273.2z"></path>
		<path class="st68" d="M287.3,218.8c0-1-1-2,1-2c1,0,2,0,2,1s1,2,0,2C289.4,219.8,288.3,219.8,287.3,218.8L287.3,218.8z     M285.3,212.7L285.3,212.7c0-1,1-2,2-2s1,2,1,2s-1,1-2,1C286.3,213.7,285.3,213.7,285.3,212.7L285.3,212.7L285.3,212.7z"></path>
		<path class="st69" d="M160.9,214.7c0,0,4,3,8.1,3c4,0,9.1-4,12.1-7.1c1-2,3-3,4-5.1c1-1,2-2,2-2c1-1,2-3,2-3c-1,1-2,2-4,3    c-1,1-5.1,3-6.1,3s-14.2,7.1-14.2,7.1L160.9,214.7L160.9,214.7z"></path>
		<path class="st70" d="M166.9,181.3c0,0,2-1,6.1-2s11.1-2,11.1-2l6.1,3l2,9.1l-4,10.1l-6.1,4l-6.1-10.1l-9.1-11.1l0,0l0,0V181.3z"></path>
		<path class="st71" d="M158.8,189.4l-2,2c0,0,1-1,1-4c0-3,3-10.1,6.1-15.2c3-4,3-4,3-4l0,0c-1,0-1,0-1,0c0-1,3-5.1,6.1-6.1    c3-2,4-2,7.1-1c3,1,4,2,6.1,2c2,0,4-2,4-2s0,1-1,5.1c-2,3-8.1,10.1-8.1,10.1l-14.2,9.1L158.8,189.4L158.8,189.4L158.8,189.4z"></path>
		<path class="st72" d="M169,180.3c0,0,10.1,1,13.2-1c0,0,0,0,0,1l0,0h1h1h1c0,0,0,1-1,1h1c0,0,0,1,0,2c0,0,0,0-1,0h-1c0,1,0,2,1,2    c1,2,3,4,5.1,3c0,0,1,3-4,11.1c-1,1-2,2-3,3c0,1-1,2-1,3s10.1-4,12.1-12.1c3-9.1,3-17.2,3-25.3c0-2,0-4-1-5.1c-1-3-5.1-2-7.1-1    c-2,2-6.1,8.1-11.1,12.1c-5.1,4-5.1,4-10.1,6.1l0,0l0,0H169z"></path>
		<path class="st64" d="M156.8,192.4c0,0-2,1-3,5.1c-1,4,1,10.1,2,11.1c1,2,4,6.1,9.1,6.1c1,0,3,0,4-1c2-1,3-2,5.1-3c2-2,4-3,4-3    c-1,0-14.2-11.1-14.2-11.1l-5.1-6.1l-2,1l0,0V192.4z"></path>
		<path class="st73" d="M169,210.7c0,0,3,0,4-1c2-1-9.1-12.1-9.1-12.1l1,12.1L169,210.7z"></path>
		<path class="st74" d="M157.8,191.4l-1,3c0,2,0,9.1,1,11.1c1,2,3,6.1,7.1,6.1c2,0,6.1-1,6.1-2c0,0-3-1-4-3c-1-1-1-3-1-5.1    c0-1,0-3,0-4c1-1,1-5.1,1-5.1l4-8.1h-6.1l-7.1,4l-1,2L157.8,191.4z"></path>
		<path class="st65" d="M155.8,193.5c0,0,4-6.1,9.1-7.1c4-1,6.1-1,6.1-1l-2,6.1l-3,4v2c0,0-1,5.1,3,9.1c3,3,6.1,3,7.1,3    c1,0,6.1-1,8.1-6.1c2-5.1,3-11.1,0-17.2c-4-6.1-10.1-6.1-12.1-6.1c-1,0-11.1,1-15.2,14.2l0,0l0,0L155.8,193.5z"></path>
		<path class="st75" d="M272.2,214.7c-2-1,0-5.1,2-7.1c2-1,4-3,8.1-3c1,0,3,1,2,2c0,2-3,4-5.1,6.1c-3,2-5.1,4-7.1,3l0,0V214.7z"></path>
		<path class="st76" d="M181.1,188.4c1,0,3,1,3,2c0,1-1,4-3,4s-3-2-3-3s0-1,0-2c0,0,0-2,2-2l0,0L181.1,188.4z"></path>
		<path class="st77" d="M162.9,189.4c0,0-3,1-5.1,4c-1,2-1,3-1,5.1c0,1,0,1,0,2s1,4,2,5.1s2,2,3,2c1,0,2-2,2-3c0-1,0-6.1,2-9.1    C166.9,192.4,162.9,189.4,162.9,189.4L162.9,189.4L162.9,189.4z"></path>
		<path class="st78" d="M162.9,189.4c-1,0-1,1-1,1c0,1,2,1,3,2s1,3,1,3c1,0,1-1,2-1c1-1,2-3,3-3s1,0,2,0s2,0,2-1c0-1-2-3-3-2    c0-1,1-2,0-3s-4,1-5.1,1s-3,2-3,2l0,0l0,0L162.9,189.4z"></path>
		<path class="st79" d="M235.7,285.5l7.1-2l2,1c0,0,1,3,3,3c-1,1-2,3-2,4c0,1,1,2,1,2s-6.1,10.1,6.1,20.2c-3,1-6.1,3-8.1,4    c1,0,4,1,5.1,2c1,1,1,1,2,2c1,1,2,2,2,2c-1,0-3-2-4-1c0,1-11.1,1-11.1,1l-18.2,3c0,0,1-2-1-3c-2-2-5.1,0-8.1-2c-4-3-4-6.1-5.1-8.1    c1-1,4-2,10.1-3c0,0-1-2-1-3c1-2,3-3,2-4c1,0,1,0,4-3c2-3,4-4,6.1-4c2,0,3,0,6.1-3c2-2,2-4,2-4s2-1,1-4l0,0l0,0H235.7z"></path>
		<path class="st80" d="M215.5,286.5c0,0,0-1,3,0c2,0,18.2-1,22.3-2c4,0,19.2,0,27.3,1c7.1,2,15.2,3,18.2,4c4,1,5.1,1,5.1,2l-1,1    c0,0-12.1-4-16.2-4c-4-1-16.2-3-23.3-3c-6.1,0-9.1,0-15.2,1c-5.1,1-15.2,2-17.2,1c-3,0-2,0-2-1l0,0l0,0H215.5z"></path>
		<path class="st81" d="M252.9,322c0,0,9.1,5.1,13.2,11.1c2,5.1-1,7.1-1,7.1s5.1,0,5.1,3c0,2-9.1,7.1-15.2,9.1c-6.1,3-6.1,2-9.1,3    c-3,0-11.1-1-12.1,1c-2,2-1,5.1,0,5.1l4,1c0,0-1,2-8.1,2c-8.1,0-10.1,1-10.1,2s1,0,5.1,1c3,1,8.1,1,8.1,1s-2,1-6.1,2    c-5.1,1-12.1,2-14.2,4c1,1,3,2,4,2c-2,0-5.1,1-5.1,2c1,0,2,1,2,1s-4,5.1-6.1,6.1c-2,1-15.2,7.1-19.2,6.1    c-11.1-3-12.1-15.2-15.2-16.2c-4-1-6.1,1-10.1-1c2-1,2-2,4-3c-2-1-11.1-7.1-11.1-7.1c-1-2-2-4-3-6.1c-2-3-4-7.1-6.1-11.1    c-4-8.1-5.1-12.1-9.1-16.2c1-1,3-1,3-1l33.4,11.1l58.7,2l15.2-22.3l6.1,1l0,0H252.9z"></path>
		<path class="st82" d="M164.9,355.3l1,1c1,1,3,2,4,3c0-1,2-2,4,0s4,1,6.1,1c2,1,2,1,2,1s1-1,3-2c1,0,3-1,4-1s3-1,4-1    c1,1,5.1,4,19.2-1s17.2-6.1,19.2-5.1c0-1,0-2,4-1c0-1-3-6.1-3-6.1l-16.2-5.1h-9.1l-26.3,5.1l-15.2,8.1l-1,4l0,0V355.3z"></path>
		<path class="st83" d="M155.8,346.2c0,0,0,2,4,5.1c4,3,5.1,4,5.1,4s1-1,1-2c1-1,1-2,2-2c2-1,6.1,1,7.1,0c1,0,1-2,1-2c2,0,3,1,4,1    s2,0,3,0c0,0,0-4,3-6.1c3-2,6.1-1,7.1-1c0,1,0,2,2,2s2,0,4,0c2,1,3,0,4,3c1,0,3,0,2-3c1-1,2-1,4-4c0-1,1-1,2-2c2,0,3,0,6.1,2    c-1,1-1,1-1,1c1,1,1,1,2,2c1,1,1,2,2,2c2,1,5.1,0,9.1,0c3,0,6.1,1,7.1,2c0,0,0,0,2,0c1,0,2,0,1-1c1,0,1,1,2,0c1-1,1-2,3-2s3,0,3-2    c1-2-2-2-2-2s2-1,3-3c2-2,5.1-5.1,5.1-8.1c1-6.1-5.1-7.1-5.1-7.1l-28.3,9.1l-34.4-2l-29.3,14.2l0,0l0,0L155.8,346.2z"></path>
		<path class="st84" d="M131.5,265.3c0,0-1,1-1,4c-1,3,0,2-1,4c0,2-6.1,21.2-4,27.3c2,6.1,6.1,9.1,8.1,14.2c0,1,1,2,1,3    c1,3,0,6.1,1,9.1c0,1,1,2,2,4c3,3,7.1,5.1,9.1,7.1c3,3,6.1,9.1,11.1,9.1c3,0,6.1-1,9.1-3c3-2,4-4,7.1-5.1c2-1,4-1,6.1-2    c4-1,8.1-1,10.1,0c3,1,11.1,3,15.2,3c3,0,7.1-1,10.1-1c6.1-2,14.2-5.1,19.2-7.1c3-1,5.1-1,8.1-2c4-1,8.1-2,10.1-5.1    c-1-2-3-4-12.1-4c-10.1,0-22.3,6.1-28.3,7.1c-6.1,1-8.1,2-15.2-1c-6.1-2-7.1-4-7.1-4s-7.1-5.1-10.1-17.2s0-21.2,7.1-29.3    c2-2,1-4,1-4s5.1-6.1,3-13.2c-1-6.1-11.1-5.1-11.1-5.1l-51.6,9.1l0,0l0,0L131.5,265.3z"></path>
		<path class="st85" d="M138.6,285.5c0,1-1,1-1,2l0,0c0,1,0,3,4,6.1c3,3,2,7.1,2,7.1s2,0,6.1-2c3-2,4,1,4,1c1-1,2-1,3-1s2,0,3-1    c1,0,4,4,7.1,6.1c3,2,5.1,3,6.1,2c1-1,1-3,1-4c0-1-1-2-1-2c-1-1-3-3-3-4c0-3,2-7.1,2-8.1c-1-1-3-1-8.1,1c-5.1,2-28.3-3-28.3-3l0,0    l0,0H138.6z"></path>
		<path class="st86" d="M150.7,306.8c0,0-3-2-2-14.2l0,0c1,0,2,0,3,0s1,9.1-2,14.2H150.7z"></path>
		<path class="st65" d="M132.5,256.2l1-1c-1,2-5.1,8.1-2,19.2c3,11.1,12.1,18.2,22.3,19.2c10.1,0,16.2-5.1,22.3-12.1    c2-3,5.1-7.1,8.1-9.1c4-4,7.1-5.1,7.1-9.1c0-8.1-8.1-12.1-20.2-15.2c-12.1-4-23.3-3-28.3-1c-5.1,3-8.1,5.1-9.1,10.1l0,0l0,0    L132.5,256.2z"></path>
		<path class="st87" d="M171,309.8h1c0,0,0-4,2-3c1,0,2,2,2,3s0,2-2,2s-3-1-3-1l0,0V309.8z"></path>
		<path class="st88" d="M166.9,294.6c0,0,1,0,2,1c1,0,5.1,0,6.1,0c1,1,2,1,2,1s-5.1,1-7.1,0c-3-1-3-3-3-3V294.6z"></path>
		<path class="st89" d="M187.2,295.6c0,0-2-2-5.1-2h-1v-1l-1,1c0,0,0,0,1,1c1,1,2,1,2,2c0,1,0,1,0,1h2c1,0,2-1,2-1l0,0l0,0V295.6z"></path>
		<path class="st90" d="M164.9,304.8c0,0,0-3,3-3c3,0,4,3,4,3l-2,2c0,0-1-2-5.1-1l0,0V304.8z"></path>
		<path class="st91" d="M184.1,290.6c0,0-2,2-5.1,2c0,0-1-1,0-3c1-1,2-2,3-1C183.1,288.6,184.1,289.6,184.1,290.6L184.1,290.6z"></path>
		<path class="st89" d="M191.2,293.6v-1c0,0,1-1,2,0c0,0,0,0,0,1v1c0,0-1,1-2,1l-1-1C190.2,294.6,191.2,294.6,191.2,293.6z     M199.3,288.6l1-1c1,0,1,1,1,1l0,0c0,0,1,1,0,2l-1,1C200.3,291.6,199.3,289.6,199.3,288.6L199.3,288.6z"></path>
		<path class="st84" d="M183.1,294.6c0,0,1,0,2,1l-1,1C184.1,296.7,184.1,295.6,183.1,294.6L183.1,294.6z"></path>
		<path class="st64" d="M181.1,284.5l1-1c1,0,1,0,1,1c1,0,1,0,1,0h1l0,0v-1h1l0,0c0,0,1,1,0,2c0,0-1,1-2,0c0,1,1,2,1,2l-1,1    c-1,0-5.1-2-5.1-3l0,0L181.1,284.5z M192.2,275.4c0,0,0,0,0-1c0,0-1,0-1,1c0,1,1,4,2,5.1c1,2,2,3,3,3l0,0c0,0,1,0,1-1    c0,0,0-2,0-6.1c0-4,0-8.1,0-8.1h-1c0,0-2,5.1-2,6.1l0,0l0,0L192.2,275.4z"></path>
		<path class="st91" d="M183.1,299.7c0,0-2-1-3,0c-1,1-1,3-1,3h1h1C182.1,301.7,183.1,300.7,183.1,299.7L183.1,299.7z"></path>
		<path class="st89" d="M186.2,303.7c0-1-1-1-1-1l1-1l0,0l1,1c1,0,1,1,1,2c0,1-1,3-2,3s-1-2-1-3l0,0L186.2,303.7z M194.3,300.7    c0,0-2,1-2,0s1-1,1-1l1-1l0,0c0,0,0,0,1,0c0,0,1-1,2,0c0,0,0,0,0,1c0,0,0,1,1,1c0,0-1,1-2,1s-1-2-1-2l0,0L194.3,300.7z     M208.4,297.7c0,0,1,0,0,1c0,0-2,1-3,1c-1,0-3,0-3,0s1-1,2-2l1-1l0,0c1,0,3,0,3,0c1,0,1,0,1,1H208.4L208.4,297.7z M209.4,285.5    l-1,1c-1,0-1,0-1-1l1-1c0,0-1,0-1-1l1-1c1,0,1-1,2-1s1,0,1,1c0,0-1,1-1,2c0,0-1,1-1,0l0,0V285.5z M198.3,310.8c0,0-1,0-1,1    c0,0,0,0,1,0c0,0,0,0,1,0c0,0,0,1,1,1s1,0,2-1c1,0,1,0,1-1c0-1-1-1-1-1l0,0h-1c0,0,0,0-1,0s-1,0,0,1v1l0,0L198.3,310.8z     M195.3,313.9l1-1l1,2c0,0-1,1-2,1l-1-1h1V313.9L195.3,313.9z M191.2,306.8c0,0,0,0,1-1l0,0l0,0c0,0,0,0,1-1c1,0,1,0,1,0    c0,1,0,1,0,2c0,1,0,1-1,2c-1,0-3,0-3,0v-1L191.2,306.8L191.2,306.8L191.2,306.8z"></path>
		<path class="st84" d="M191.2,311.8c0,0-1,0-1,1c0,0,0,0,0,1l0,0h1v-1l0,0V311.8z"></path>
		<path class="st64" d="M184.1,309.8c0,0,1,0,2,0c0,0,1,1,0,1c0,1-1,1-2,1c-1,0-2-1-2-1l0,0c0-1,0-1,1-1H184.1L184.1,309.8    L184.1,309.8z"></path>
		<path class="st91" d="M184.1,309.8c0,0-1,1-2,2c0,1-3,3-3,4c0,0,0-1,1-1c-1,1-2,1-2,2c-1,2,3,3,5.1,3c2,1,3,1,3,1c-1-1-2-3-2-4    c-1-2-1-2-1-3c0-1,1-2,1-2c0-1-1-1-1-1L184.1,309.8z"></path>
		<path class="st65" d="M131.5,313.9c0,0,0,0,1,0c0,0,0,0,1,0c1,0,8.1-3,15.2-2c6.1,0,11.1,1,16.2,3c9.1,2,21.2,7.1,28.3,10.1    c2,1,4,2,5.1,3c6.1,2,6.1,2,9.1,3c4,1,8.1-1,12.1-2c5.1-1,14.2-2,22.3-3c3,0,5.1-1,7.1-2c2-1-6.1,6.1-21.2,8.1c-3,0-7.1,1-10.1,1    c-3,0-5.1,0-8.1-1c-5.1,0-8.1-1-10.1-2c-3-1-8.1-3-15.2-4c-5.1-1-10.1-2-16.2-3c-15.2-3-31.4-6.1-37.4-9.1l0,0H131.5z"></path>
		<line class="st92" x1="123.4" y1="255.2" x2="86" y2="219.8"></line>
		<path class="st3" d="M114.3,285.5c-4,3-7.1,6.1-11.1,9.1l-11.1,9.1c-4,3-8.1,6.1-11.1,9.1c-4,3-8.1,5.1-12.1,8.1    c4-3,7.1-6.1,11.1-9.1s8.1-5.1,11.1-8.1l11.1-9.1c4-3,8.1-6.1,11.1-8.1l0,0L114.3,285.5z M94.1,317.9c0,0,4-3,9.1-8.1    c6.1-6.1,14.2-13.2,16.2-15.2L94.1,317.9L94.1,317.9z"></path>
		<path class="st3" d="M95.1,317.9c2-2,4-4,6.1-6.1l3-3c1-1,2-2,3-3c2-2,4-4,6.1-6.1c1-1,2-2,3-3c1,0,1-1,2-1s1-1,2-1c0,1-1,1-1,2    c-1,0-1,1-1,1c-1,1-2,2-3,3c-2,2-4,4-6.1,5.1c-2,2-4,4-6.1,6.1c-2,2-4,4-7.1,6.1l0,0H95.1z M144.7,278.4c0,0-15.2,14.2-18.2,17.2    L144.7,278.4z"></path>
		<path class="st3" d="M122.4,298.7c-1,2-3,3-4,4l-4,4c-1,1-3,3-4,4c-2,1-3,3-5.1,4l4-4c1-1,3-3,5.1-4l4-4c1-1,3-3,5.1-4l0,0H122.4z     M123.4,306.8c-1,4-3,8.1-5.1,11.1c-4,8.1-10.1,17.2-12.1,22.3L123.4,306.8L123.4,306.8z"></path>
		<path class="st3" d="M122.4,306.8c0,2,0,3-1,5.1c-1,1-1,3-2,4c-1,1-1,3-2,4c-1,1-2,3-2,4l-5.1,8.1c-2,3-3,5.1-5.1,8.1    c1-3,3-6.1,4-8.1c2-3,3-5.1,4-8.1c1-1,1-3,2-4c1-1,1-3,2-4c1-1,1-3,2-4c1-1,1-3,2-4l0,0L122.4,306.8z"></path>
		<path class="st93" d="M138.6,344.2c0,0-4,6.1-4,13.2C135.6,353.3,137.6,347.2,138.6,344.2z M142.7,350.3c0,0-2,16.2-3,24.3    C141.6,365.5,141.6,366.5,142.7,350.3z M173,375.6c0,0-7.1,20.2-7.1,25.3C166.9,394.8,170,383.7,173,375.6L173,375.6z"></path>
		<path class="st94" d="M189.2,343.2c0,0,11.1,18.2,19.2,33.4C206.4,368.5,201.3,354.3,189.2,343.2z"></path>
		<path class="st95" d="M218.5,370.5c6.1,11.1,11.1,21.2,16.2,33.4C233.7,395.8,231.7,382.7,218.5,370.5z"></path>
		<path class="st96" d="M305.5,396.8c2-1,5.1-7.1,9.1-9.1c3-2,5.1-2,8.1-5.1s4-5.1,10.1-8.1c9.1-4,3-9.1,3-9.1c1-1,2-2,3-3    c2-2,5.1-4,5.1-7.1c0-6.1-1-15.2-6.1-20.2c5.1-1,14.2-2,20.2-3c7.1-2,10.1-4,10.1-4s-4-6.1,2-13.2c6.1-7.1,11.1-10.1,15.2-18.2    c-4-1-11.1-3-27.3,3c1,0,2,1,3,1c1,1-10.1,3-14.2,6.1c-6.1,5.1-7.1,10.1-14.2,13.2c-7.1,3-14.2,2-20.2,5.1c-6.1,3-7.1,5.1-9.1,6.1    c0,1,0,1,1,2c-1,1-4,6.1-7.1,6.1c0,1,3,2,3,2s-2,1-7.1,2c3,3,5.1,6.1,12.1,10.1c-1,1-3,3-2,5.1c1,2,4,5.1,14.2,7.1    c-5.1,0-11.1,1-20.2,0c-8.1-1-10.1-2-15.2,0c1,1,2,1,3,2c-1,0-10.1-1-13.2,3c-3,4-4,10.1-4,15.2c-2,1-3,2-2,5.1c1,3,5.1,4,7.1,5.1    c3,2,3,3,5.1,2c3-1,6.1-3,9.1-3c2,0,4,2,4,2s6.1-3,7.1-2c1,1,0,4,1,5.1c1,0,7.1-4,9.1-5.1l0,0L305.5,396.8z"></path>
		<path class="st97" d="M438.1,213.7c-28.3-73.9-99.2-88-99.2-88H137.6l1,74.9h40.5v167.9h-41.5v74.9h196.3c47.6,0,85-47.6,85-47.6    c60.7-86,20.2-183.1,20.2-183.1l0,0L438.1,213.7z M333.9,346.2c0,0-15.2,22.3-32.4,22.3h-33.4l-1-166.9h42.5c0,0,20.2,4,33.4,43.5    c0,0,18.2,56.7-10.1,101.2l0,0H333.9z"></path>
	</g>
</g>
</svg>
