<?xml version="1.0" encoding="UTF-8" standalone="no"?>
<svg
   width="2800"
   height="800"
   viewBox="0 0 2800 800"
   fill="none"
   version="1.1"
   id="svg67"
   sodipodi:docname="webmoney.svg"
   inkscape:version="1.1.2 (0a00cf5339, 2022-02-04)"
   xmlns:inkscape="http://www.inkscape.org/namespaces/inkscape"
   xmlns:sodipodi="http://sodipodi.sourceforge.net/DTD/sodipodi-0.dtd"
   xmlns="http://www.w3.org/2000/svg"
   xmlns:svg="http://www.w3.org/2000/svg">
  <sodipodi:namedview
     id="namedview69"
     pagecolor="#ffffff"
     bordercolor="#666666"
     borderopacity="1.0"
     inkscape:pageshadow="2"
     inkscape:pageopacity="0.0"
     inkscape:pagecheckerboard="0"
     showgrid="false"
     inkscape:zoom="0.14191919"
     inkscape:cx="1176.726"
     inkscape:cy="98.647686"
     inkscape:window-width="1350"
     inkscape:window-height="696"
     inkscape:window-x="0"
     inkscape:window-y="0"
     inkscape:window-maximized="1"
     inkscape:current-layer="svg67"
     height="900px" />
  <g
     clip-path="url(#clip0_1508_1885)"
     id="g60"
     transform="matrix(3,0,0,3,-78.06937,-57.0011)">
    <path
       fill-rule="evenodd"
       clip-rule="evenodd"
       d="m 509.139,186.315 c 4.084,1.795 8.553,2.061 11.748,2.061 9.44,0 16.578,-5.907 16.578,-26.675 0,-16.285 -5.869,-21.542 -14.414,-21.542 -5.108,0 -8.807,1.415 -13.912,4.23 z m 0.134,-51.412 c 3.819,-2.045 10.325,-4.747 17.218,-4.747 15.823,0 24.374,11.027 24.374,31.545 0,23.981 -11.486,35.649 -29.978,35.649 -6.768,0 -17.23,-2.18 -24.89,-6.293 v -89.494 l 13.276,-3.2007 z m -141.981,-3.358 h 0.897 l 17.346,63.993 h 13.781 l 20.678,-90.914 h -14.93 l -13.017,67.837 h -0.893 l -17.737,-67.837 h -11.36 l -16.5843,67.837 h -0.8925 L 330.2884,104.624 H 316 l 20.6721,90.914 h 13.7709 z m 100.045,25.294 h -29.214 c 1.397,-12.816 7.398,-18.841 15.181,-18.841 6.888,0 13.399,5.381 14.033,18.841 z m 10.206,33.861 v -9.747 c -7.013,4.223 -13.392,6.664 -20.281,6.663 -13.147,0 -19.395,-6.797 -19.395,-22.18 h 41.596 v -4.745 c 0,-20.896 -9.831,-31.29 -25.776,-31.29 -19.14,0 -28.963,14.106 -28.963,33.605 0,20.257 8.804,33.593 30.234,33.593 9.193,0 16.844,-2.567 22.585,-5.899 z m 131.388,-14.45 h -0.639 l -28.577,-71.68 h -15.444 v 90.921 h 11.485 v -64.373 h 1.144 l 26.039,64.373 h 8.159 l 26.033,-65.914 h 1.151 v 65.914 h 13.78 V 104.57 h -15.831 z m 99.432,-13.248 c 0,-17.31 -7.012,-24.615 -15.688,-24.615 -8.419,0 -15.698,7.305 -15.698,24.615 0,17.569 6.643,24.614 15.698,24.614 9.054,0 15.688,-7.045 15.688,-24.614 z m -44.778,0 c 0,-22.448 12.252,-33.601 29.09,-33.601 16.847,0 29.093,11.153 29.093,33.601 0,21.922 -11.61,33.597 -29.093,33.597 -17.48,0 -29.09,-11.675 -29.09,-33.597 z m 68.274,-24.105 c 5.741,-3.467 17.868,-9.496 32.537,-9.496 15.311,0 21.042,6.029 21.042,19.233 v 46.425 h -13.26 v -43.472 c 0,-10.128 -4.968,-11.923 -11.484,-11.923 -5.097,0 -11.613,2.311 -15.565,4.619 v 50.776 h -13.27 z m 110.885,17.942 h -29.217 c 1.41,-12.816 7.399,-18.841 15.184,-18.841 6.89,0 13.405,5.381 14.033,18.841 z m 10.205,33.861 v -9.747 c -7.005,4.223 -13.395,6.664 -20.277,6.663 -13.143,0 -19.396,-6.797 -19.396,-22.18 h 41.601 v -4.745 c 0,-20.896 -9.829,-31.29 -25.783,-31.29 -19.142,0 -28.961,14.106 -28.961,33.605 0,20.257 8.81,33.593 30.233,33.593 9.188,0 16.845,-2.567 22.583,-5.899 z m 68.585,-61.299 h -13.656 l -14.538,47.187 h -0.766 l -16.331,-47.187 h -14.038 l 24.5,64.106 c -3.069,9.495 -8.42,16.423 -17.101,16.423 v 10.507 c 14.67,0 22.445,-9.233 28.833,-26.93 z"
       fill="#036cb5"
       id="path56" />
    <path
       d="m 166.042,54.0391 c 15.6,0 30.443,3.5742 43.762,9.9678 2.089,0.9424 4.192,2.0703 6.274,3.1992 l -9.133,8.0898 -13.691,-14.1074 -23.592,20.6885 -13.893,-14.8613 -43.382,38.5603 27.775,30.283 -10.843,9.403 27.402,30.283 -10.843,9.398 39.197,43.074 23.199,-21.067 20.178,22.577 c -3.999,3.01 -8.375,6.026 -13.126,8.654 -14.463,8.087 -31.209,12.781 -49.092,12.781 -54.992,0 -99.698,-44.193 -99.698,-98.546 -0.194,-53.9863 44.519,-98.3769 99.506,-98.3769 z m -18.269,92.3539 23.784,-21.068 21.315,23.511 -23.789,21.065 z m 16.939,40.628 23.59,-21.253 21.502,23.508 -23.785,21.069 z m -33.863,-80.69 23.778,-21.0673 21.309,23.5103 -23.785,21.067 z m 43.563,-11.289 17.696,-15.7988 15.986,17.4932 -17.696,15.9856 z m 31.588,72.415 17.69,-15.8 15.986,17.676 -17.698,15.81 z m 15.599,35.553 17.698,-15.803 15.972,17.492 -17.69,15.984 z m 7.232,-81.259 11.795,-10.534 10.651,11.666 -11.793,10.53 z M 213.609,86.9541 225.405,76.2353 236.064,88.083 224.26,98.6162 Z m 30.251,69.5969 11.795,-10.533 10.845,11.662 -11.983,10.53 z m -53.083,-26.146 17.697,-15.8 15.979,17.49 -17.69,15.802 z"
       fill="#036cb5"
       id="path58" />
  </g>
  <defs
     id="defs65">
    <clipPath
       id="clip0_1508_1885">
      <rect
         width="990"
         height="300"
         fill="#ffffff"
         id="rect62"
         x="0"
         y="0" />
    </clipPath>
  </defs>
</svg>
