<svg width="238" height="82" viewBox="0 0 238 82" fill="none" xmlns="http://www.w3.org/2000/svg">
<path fill-rule="evenodd" clip-rule="evenodd" d="M47.5512 2.98445e-06H56.9388C60.1543 -7.1328e-05 62.8597 -0.000135021 65.0742 0.184118C67.3907 0.37685 69.5972 0.795741 71.6932 1.88326C74.8858 3.53981 77.4815 6.1831 79.1083 9.43427C80.1762 11.5686 80.5876 13.8156 80.7768 16.1745C80.9578 18.4297 80.9577 21.1847 80.9576 24.4592V33.5265C80.9577 36.801 80.9578 39.556 80.7768 41.8112C80.5876 44.1701 80.1762 46.4171 79.1083 48.5514C77.4815 51.8026 74.8858 54.4459 71.6932 56.1025C69.5972 57.19 67.3907 57.6089 65.0742 57.8016C62.8596 57.9859 60.1542 57.9858 56.9387 57.9857H28.9046C26.9354 57.9857 25.1584 56.7826 24.3964 54.9336C23.6345 53.0845 24.0363 50.9504 25.4158 49.5194L48.5665 25.5051L55.544 32.4806L40.5552 48.0286H56.7429C60.2059 48.0286 62.5091 48.0247 64.278 47.8775C65.9898 47.7351 66.7663 47.4837 67.2541 47.2306C68.6069 46.5287 69.7068 45.4086 70.3961 44.031C70.6446 43.5343 70.8915 42.7435 71.0314 41.0003C71.1759 39.1991 71.1797 36.8536 71.1797 33.3272V24.6586C71.1797 21.1321 71.1759 18.7867 71.0314 16.9854C70.8915 15.2422 70.6446 14.4515 70.3961 13.9547C69.7068 12.5771 68.6069 11.4571 67.2541 10.7551C66.7663 10.502 65.9898 10.2506 64.278 10.1082C62.5091 9.96102 60.2059 9.95715 56.7429 9.95715H47.7485C44.2476 9.95715 41.9175 9.96106 40.1292 10.1106C38.3973 10.2554 37.6144 10.5111 37.125 10.7673C35.764 11.4799 34.6618 12.616 33.9788 14.0105C33.7331 14.512 33.4916 15.3123 33.3705 17.0776C33.2455 18.9004 33.2701 21.273 33.3128 24.8378L33.3618 28.9321L23.5846 29.0536L23.5332 24.7583C23.4934 21.4473 23.46 18.6631 23.6164 16.3838C23.7798 14.0009 24.1698 11.7282 25.229 9.56597C26.8411 6.275 29.4422 3.59367 32.654 1.91206C34.7643 0.807205 36.9912 0.38232 39.329 0.186845C41.5653 -0.0001356 44.2995 -7.19178e-05 47.5512 2.98445e-06Z" fill="url(#paint0_linear_1440_8412)"/>
<path fill-rule="evenodd" clip-rule="evenodd" d="M47.5512 2.98445e-06H56.9388C60.1543 -7.1328e-05 62.8597 -0.000135021 65.0742 0.184118C67.3907 0.37685 69.5972 0.795741 71.6932 1.88326C74.8858 3.53981 77.4815 6.1831 79.1083 9.43427C80.1762 11.5686 80.5876 13.8156 80.7768 16.1745C80.9578 18.4297 80.9577 21.1847 80.9576 24.4592V33.5265C80.9577 36.801 80.9578 39.556 80.7768 41.8112C80.5876 44.1701 80.1762 46.4171 79.1083 48.5514C77.4815 51.8026 74.8858 54.4459 71.6932 56.1025C69.5972 57.19 67.3907 57.6089 65.0742 57.8016C62.8596 57.9859 60.1542 57.9858 56.9387 57.9857H28.9046C26.9354 57.9857 25.1584 56.7826 24.3964 54.9336C23.6345 53.0845 24.0363 50.9504 25.4158 49.5194L48.5665 25.5051L55.544 32.4806L40.5552 48.0286H56.7429C60.2059 48.0286 62.5091 48.0247 64.278 47.8775C65.9898 47.7351 66.7663 47.4837 67.2541 47.2306C68.6069 46.5287 69.7068 45.4086 70.3961 44.031C70.6446 43.5343 70.8915 42.7435 71.0314 41.0003C71.1759 39.1991 71.1797 36.8536 71.1797 33.3272V24.6586C71.1797 21.1321 71.1759 18.7867 71.0314 16.9854C70.8915 15.2422 70.6446 14.4515 70.3961 13.9547C69.7068 12.5771 68.6069 11.4571 67.2541 10.7551C66.7663 10.502 65.9898 10.2506 64.278 10.1082C62.5091 9.96102 60.2059 9.95715 56.7429 9.95715H47.7485C44.2476 9.95715 41.9175 9.96106 40.1292 10.1106C38.3973 10.2554 37.6144 10.5111 37.125 10.7673C35.764 11.4799 34.6618 12.616 33.9788 14.0105C33.7331 14.512 33.4916 15.3123 33.3705 17.0776C33.2455 18.9004 33.2701 21.273 33.3128 24.8378L33.3618 28.9321L23.5846 29.0536L23.5332 24.7583C23.4934 21.4473 23.46 18.6631 23.6164 16.3838C23.7798 14.0009 24.1698 11.7282 25.229 9.56597C26.8411 6.275 29.4422 3.59367 32.654 1.91206C34.7643 0.807205 36.9912 0.38232 39.329 0.186845C41.5653 -0.0001356 44.2995 -7.19178e-05 47.5512 2.98445e-06Z" fill="url(#paint1_radial_1440_8412)"/>
<path fill-rule="evenodd" clip-rule="evenodd" d="M47.5512 2.98445e-06H56.9388C60.1543 -7.1328e-05 62.8597 -0.000135021 65.0742 0.184118C67.3907 0.37685 69.5972 0.795741 71.6932 1.88326C74.8858 3.53981 77.4815 6.1831 79.1083 9.43427C80.1762 11.5686 80.5876 13.8156 80.7768 16.1745C80.9578 18.4297 80.9577 21.1847 80.9576 24.4592V33.5265C80.9577 36.801 80.9578 39.556 80.7768 41.8112C80.5876 44.1701 80.1762 46.4171 79.1083 48.5514C77.4815 51.8026 74.8858 54.4459 71.6932 56.1025C69.5972 57.19 67.3907 57.6089 65.0742 57.8016C62.8596 57.9859 60.1542 57.9858 56.9387 57.9857H28.9046C26.9354 57.9857 25.1584 56.7826 24.3964 54.9336C23.6345 53.0845 24.0363 50.9504 25.4158 49.5194L48.5665 25.5051L55.544 32.4806L40.5552 48.0286H56.7429C60.2059 48.0286 62.5091 48.0247 64.278 47.8775C65.9898 47.7351 66.7663 47.4837 67.2541 47.2306C68.6069 46.5287 69.7068 45.4086 70.3961 44.031C70.6446 43.5343 70.8915 42.7435 71.0314 41.0003C71.1759 39.1991 71.1797 36.8536 71.1797 33.3272V24.6586C71.1797 21.1321 71.1759 18.7867 71.0314 16.9854C70.8915 15.2422 70.6446 14.4515 70.3961 13.9547C69.7068 12.5771 68.6069 11.4571 67.2541 10.7551C66.7663 10.502 65.9898 10.2506 64.278 10.1082C62.5091 9.96102 60.2059 9.95715 56.7429 9.95715H47.7485C44.2476 9.95715 41.9175 9.96106 40.1292 10.1106C38.3973 10.2554 37.6144 10.5111 37.125 10.7673C35.764 11.4799 34.6618 12.616 33.9788 14.0105C33.7331 14.512 33.4916 15.3123 33.3705 17.0776C33.2455 18.9004 33.2701 21.273 33.3128 24.8378L33.3618 28.9321L23.5846 29.0536L23.5332 24.7583C23.4934 21.4473 23.46 18.6631 23.6164 16.3838C23.7798 14.0009 24.1698 11.7282 25.229 9.56597C26.8411 6.275 29.4422 3.59367 32.654 1.91206C34.7643 0.807205 36.9912 0.38232 39.329 0.186845C41.5653 -0.0001356 44.2995 -7.19178e-05 47.5512 2.98445e-06Z" fill="url(#paint2_radial_1440_8412)"/>
<path fill-rule="evenodd" clip-rule="evenodd" d="M47.5512 2.98445e-06H56.9388C60.1543 -7.1328e-05 62.8597 -0.000135021 65.0742 0.184118C67.3907 0.37685 69.5972 0.795741 71.6932 1.88326C74.8858 3.53981 77.4815 6.1831 79.1083 9.43427C80.1762 11.5686 80.5876 13.8156 80.7768 16.1745C80.9578 18.4297 80.9577 21.1847 80.9576 24.4592V33.5265C80.9577 36.801 80.9578 39.556 80.7768 41.8112C80.5876 44.1701 80.1762 46.4171 79.1083 48.5514C77.4815 51.8026 74.8858 54.4459 71.6932 56.1025C69.5972 57.19 67.3907 57.6089 65.0742 57.8016C62.8596 57.9859 60.1542 57.9858 56.9387 57.9857H28.9046C26.9354 57.9857 25.1584 56.7826 24.3964 54.9336C23.6345 53.0845 24.0363 50.9504 25.4158 49.5194L48.5665 25.5051L55.544 32.4806L40.5552 48.0286H56.7429C60.2059 48.0286 62.5091 48.0247 64.278 47.8775C65.9898 47.7351 66.7663 47.4837 67.2541 47.2306C68.6069 46.5287 69.7068 45.4086 70.3961 44.031C70.6446 43.5343 70.8915 42.7435 71.0314 41.0003C71.1759 39.1991 71.1797 36.8536 71.1797 33.3272V24.6586C71.1797 21.1321 71.1759 18.7867 71.0314 16.9854C70.8915 15.2422 70.6446 14.4515 70.3961 13.9547C69.7068 12.5771 68.6069 11.4571 67.2541 10.7551C66.7663 10.502 65.9898 10.2506 64.278 10.1082C62.5091 9.96102 60.2059 9.95715 56.7429 9.95715H47.7485C44.2476 9.95715 41.9175 9.96106 40.1292 10.1106C38.3973 10.2554 37.6144 10.5111 37.125 10.7673C35.764 11.4799 34.6618 12.616 33.9788 14.0105C33.7331 14.512 33.4916 15.3123 33.3705 17.0776C33.2455 18.9004 33.2701 21.273 33.3128 24.8378L33.3618 28.9321L23.5846 29.0536L23.5332 24.7583C23.4934 21.4473 23.46 18.6631 23.6164 16.3838C23.7798 14.0009 24.1698 11.7282 25.229 9.56597C26.8411 6.275 29.4422 3.59367 32.654 1.91206C34.7643 0.807205 36.9912 0.38232 39.329 0.186845C41.5653 -0.0001356 44.2995 -7.19178e-05 47.5512 2.98445e-06Z" fill="url(#paint3_radial_1440_8412)"/>
<path fill-rule="evenodd" clip-rule="evenodd" d="M16.679 71.8918C18.4479 72.039 20.7511 72.0429 24.2141 72.0429H33.3594C36.517 72.0429 38.617 72.0396 40.2347 71.9166C41.8025 71.7975 42.5214 71.5864 42.9716 71.3761C44.536 70.6453 45.791 69.3672 46.5087 67.7742C46.7152 67.3157 46.9225 66.5836 47.0395 64.9871C47.1603 63.3398 47.1635 61.2013 47.1635 57.9857H56.9414L56.9414 58.1674C56.9415 61.1535 56.9415 63.6661 56.7903 65.7284C56.6324 67.8832 56.2896 69.9424 55.3961 71.9259C53.7024 75.6855 50.7406 78.7017 47.0486 80.4263C45.1009 81.3362 43.0787 81.6853 40.9627 81.8461C38.9375 82.0001 36.4701 82.0001 33.5378 82L24.0182 82C20.8027 82.0001 18.0973 82.0001 15.8828 81.8159C13.5663 81.6231 11.3598 81.2043 9.26382 80.1167C6.07117 78.4602 3.47546 75.8169 1.84872 72.5657C0.780781 70.4314 0.369434 68.1844 0.180164 65.8255C-0.000770569 63.5703 -0.000705719 60.8153 -0.00063324 57.5408V48.4735C-0.000705719 45.199 -0.000770569 42.444 0.180164 40.1888C0.369434 37.8299 0.780785 35.5829 1.84872 33.4486C3.47546 30.1974 6.07117 27.5541 9.26382 25.8975C11.3598 24.81 13.5663 24.3911 15.8828 24.1984C18.0974 24.0142 20.8028 24.0142 24.0183 24.0143H52.0524C54.7525 24.0143 56.9414 26.2433 56.9414 28.9929C56.9414 31.7425 54.7525 33.9714 52.0524 33.9714H24.2141C20.7511 33.9714 18.4479 33.9753 16.679 34.1225C14.9672 34.2649 14.1907 34.5163 13.7029 34.7694C12.3501 35.4714 11.2502 36.5914 10.5609 37.969C10.3124 38.4657 10.0655 39.2565 9.92562 40.9997C9.7811 42.8009 9.77729 45.1464 9.77729 48.6728V57.3414C9.77729 60.8679 9.7811 63.2133 9.92562 65.0146C10.0655 66.7578 10.3124 67.5485 10.5609 68.0453C11.2502 69.4229 12.3501 70.5429 13.7029 71.2449C14.1907 71.498 14.9672 71.7494 16.679 71.8918Z" fill="url(#paint4_linear_1440_8412)"/>
<path fill-rule="evenodd" clip-rule="evenodd" d="M16.679 71.8918C18.4479 72.039 20.7511 72.0429 24.2141 72.0429H33.3594C36.517 72.0429 38.617 72.0396 40.2347 71.9166C41.8025 71.7975 42.5214 71.5864 42.9716 71.3761C44.536 70.6453 45.791 69.3672 46.5087 67.7742C46.7152 67.3157 46.9225 66.5836 47.0395 64.9871C47.1603 63.3398 47.1635 61.2013 47.1635 57.9857H56.9414L56.9414 58.1674C56.9415 61.1535 56.9415 63.6661 56.7903 65.7284C56.6324 67.8832 56.2896 69.9424 55.3961 71.9259C53.7024 75.6855 50.7406 78.7017 47.0486 80.4263C45.1009 81.3362 43.0787 81.6853 40.9627 81.8461C38.9375 82.0001 36.4701 82.0001 33.5378 82L24.0182 82C20.8027 82.0001 18.0973 82.0001 15.8828 81.8159C13.5663 81.6231 11.3598 81.2043 9.26382 80.1167C6.07117 78.4602 3.47546 75.8169 1.84872 72.5657C0.780781 70.4314 0.369434 68.1844 0.180164 65.8255C-0.000770569 63.5703 -0.000705719 60.8153 -0.00063324 57.5408V48.4735C-0.000705719 45.199 -0.000770569 42.444 0.180164 40.1888C0.369434 37.8299 0.780785 35.5829 1.84872 33.4486C3.47546 30.1974 6.07117 27.5541 9.26382 25.8975C11.3598 24.81 13.5663 24.3911 15.8828 24.1984C18.0974 24.0142 20.8028 24.0142 24.0183 24.0143H52.0524C54.7525 24.0143 56.9414 26.2433 56.9414 28.9929C56.9414 31.7425 54.7525 33.9714 52.0524 33.9714H24.2141C20.7511 33.9714 18.4479 33.9753 16.679 34.1225C14.9672 34.2649 14.1907 34.5163 13.7029 34.7694C12.3501 35.4714 11.2502 36.5914 10.5609 37.969C10.3124 38.4657 10.0655 39.2565 9.92562 40.9997C9.7811 42.8009 9.77729 45.1464 9.77729 48.6728V57.3414C9.77729 60.8679 9.7811 63.2133 9.92562 65.0146C10.0655 66.7578 10.3124 67.5485 10.5609 68.0453C11.2502 69.4229 12.3501 70.5429 13.7029 71.2449C14.1907 71.498 14.9672 71.7494 16.679 71.8918Z" fill="url(#paint5_radial_1440_8412)"/>
<path d="M131.405 56.7952V61.8719C131.405 62.5965 130.824 63.1884 130.108 63.1884H102.427C102.389 63.1884 102.346 63.1884 102.308 63.184C100.919 63.1452 99.6982 62.4207 98.961 61.3319C98.9567 61.3232 98.9529 61.3145 98.9444 61.3063C98.6076 60.7313 98.4141 60.0587 98.4141 59.3336C98.4141 58.532 98.6537 57.7944 99.0623 57.1769C99.0961 57.1255 99.1299 57.0742 99.1674 57.0267L120.188 27.3941H101.361C100.65 27.3941 100.069 26.8022 100.069 26.0733V21.001C100.069 20.272 100.65 19.6802 101.361 19.6802H127.746C127.775 19.6802 127.805 19.6802 127.834 19.6845C127.842 19.6845 127.855 19.6802 127.868 19.6845C129.304 19.7233 130.563 20.5035 131.287 21.6654C131.295 21.6785 131.299 21.6867 131.304 21.6955C131.598 22.2442 131.762 22.8705 131.762 23.535C131.762 24.3321 131.523 25.0741 131.114 25.6917C131.081 25.743 131.047 25.7905 131.009 25.8418L109.985 55.4788H130.108C130.824 55.4788 131.405 56.0707 131.405 56.7952Z" fill="#0C0C3A"/>
<path d="M149.118 56.6669C144.377 56.6669 140.928 52.9066 140.928 47.7053C140.928 42.4397 144.377 38.6794 149.118 38.6794C153.855 38.6794 157.24 42.4397 157.24 47.7053C157.24 52.9066 153.855 56.6669 149.118 56.6669ZM163.952 32.2218H158.537C157.821 32.2218 157.24 32.8137 157.24 33.5388V37.1702C154.781 33.6627 150.966 31.5917 146.533 31.5917C138.528 31.5917 132.68 38.3665 132.68 47.7053C132.68 57.0442 138.528 63.7545 146.533 63.7545C150.966 63.7545 154.781 61.6879 157.24 58.2361V61.808C157.24 62.5708 157.851 63.1883 158.596 63.1883H163.952C164.702 63.1883 165.308 62.5708 165.308 61.808V33.5983C165.308 32.8393 164.702 32.2218 163.952 32.2218Z" fill="#0C0C3A"/>
<path d="M189.439 31.5927C185.252 31.5927 181.803 33.5987 179.833 36.9233V33.5375C179.833 32.6601 179.342 32.2211 178.541 32.2211H173.122C172.323 32.2211 171.832 32.6601 171.832 33.5375V61.8095C171.832 62.687 172.323 63.1898 173.122 63.1898H178.541C179.342 63.1898 179.833 62.687 179.833 61.8095V45.009C179.833 40.8714 182.42 38.1136 186.297 38.1136C190.053 38.1136 192.578 40.8714 192.578 45.009V61.8095C192.578 62.5717 193.184 63.1898 193.93 63.1898H199.289C200.035 63.1898 200.642 62.5717 200.642 61.8095V43.8193C200.642 36.6077 196.024 31.5927 189.439 31.5927Z" fill="#0C0C3A"/>
<path d="M221.563 56.6669C216.822 56.6669 213.441 52.9066 213.441 47.7053C213.441 42.4397 216.822 38.6794 221.563 38.6794C226.367 38.6794 229.753 42.4397 229.753 47.7053C229.753 52.9066 226.367 56.6669 221.563 56.6669ZM221.626 31.5917C212.085 31.5917 205.188 38.3665 205.188 47.7053C205.188 57.0442 212.085 63.7545 221.626 63.7545C231.109 63.7545 238.002 57.0442 238.002 47.7053C238.002 38.3665 231.109 31.5917 221.626 31.5917Z" fill="#0C0C3A"/>
<defs>
<linearGradient id="paint0_linear_1440_8412" x1="38.5758" y1="57.5355" x2="39.24" y2="-0.0737268" gradientUnits="userSpaceOnUse">
<stop offset="0.43118" stop-color="#498FFD"/>
<stop offset="1" stop-color="#16D1D6"/>
</linearGradient>
<radialGradient id="paint1_radial_1440_8412" cx="0" cy="0" r="1" gradientUnits="userSpaceOnUse" gradientTransform="translate(22.8217 17.5564) rotate(-15.6853) scale(36.9692 37.1516)">
<stop stop-color="#18CFD7"/>
<stop offset="1" stop-color="#18CFD7" stop-opacity="0"/>
</radialGradient>
<radialGradient id="paint2_radial_1440_8412" cx="0" cy="0" r="1" gradientUnits="userSpaceOnUse" gradientTransform="translate(44.4106 34.0184) rotate(152.175) scale(13.8551 13.8931)">
<stop stop-color="#4990FE"/>
<stop offset="0.353962" stop-color="#4990FE"/>
<stop offset="1" stop-color="#4990FE" stop-opacity="0"/>
</radialGradient>
<radialGradient id="paint3_radial_1440_8412" cx="0" cy="0" r="1" gradientUnits="userSpaceOnUse" gradientTransform="translate(27.4896 52.8321) rotate(-46.1564) scale(25.2703 25.2238)">
<stop stop-color="#4990FE"/>
<stop offset="0.405688" stop-color="#4990FE"/>
<stop offset="1" stop-color="#4990FE" stop-opacity="0"/>
</radialGradient>
<linearGradient id="paint4_linear_1440_8412" x1="57.2443" y1="82.2284" x2="57.4579" y2="23.4365" gradientUnits="userSpaceOnUse">
<stop stop-color="#2950FF"/>
<stop offset="0.821717" stop-color="#498FFD"/>
</linearGradient>
<radialGradient id="paint5_radial_1440_8412" cx="0" cy="0" r="1" gradientUnits="userSpaceOnUse" gradientTransform="translate(57.2443 57.5354) rotate(129.077) scale(24.9922 24.6915)">
<stop offset="0.337169" stop-color="#2950FF"/>
<stop offset="0.792226" stop-color="#2950FF" stop-opacity="0"/>
</radialGradient>
</defs>
</svg>
